<svg id="charac2" xmlns="http://www.w3.org/2000/svg" xmlns:xlink="http://www.w3.org/1999/xlink" width="252.525" height="372" viewBox="0 0 252.525 372">
  <defs>
    <clipPath id="clip-path">
      <rect id="사각형_35331" data-name="사각형 35331" width="252.525" height="372" transform="translate(252.525 372) rotate(180)" fill="none"/>
    </clipPath>
    <clipPath id="clip-path-2">
      <path id="패스_34564" data-name="패스 34564" d="M265.42,384.913c17.918-11.016,79.076-46.918,86.03-50.573,0,0,12,.886,16.74,9l-82.917,48.724c-7.055-7.079-15.068-8.1-19.853-7.151Z" transform="translate(-265.42 -334.34)" fill="#a363c1"/>
    </clipPath>
    <clipPath id="clip-path-3">
      <path id="패스_34574" data-name="패스 34574" d="M319.723,537.079c-7.18-6.116-18.095-22.152-19.972-27.823-4.042-12.2-8.985-36.745-11.605-54.577L235.12,473.4s9.541,30.145,19.431,50.961c13.128,27.641,36.769,34.178,48.791,39.749" transform="translate(-235.12 -454.68)" fill="none"/>
    </clipPath>
  </defs>
  <g id="그룹_97064" data-name="그룹 97064" clip-path="url(#clip-path)">
    <g id="그룹_97063" data-name="그룹 97063" transform="translate(-0.001 0)">
      <g id="그룹_97059" data-name="그룹 97059">
        <path id="패스_34540" data-name="패스 34540" d="M314.259,307.21s38.015-9.943,42.091,12.659L365.4,402.6s-10.408,19.441-48.422,13.564l-17.65-68.716,14.934-40.232Z" transform="translate(-155.964 -158.935)" fill="#ccdbf2"/>
        <ellipse id="타원_15" data-name="타원 15" cx="82.534" cy="77.155" rx="82.534" ry="77.155" transform="translate(47.096)" fill="#fff" opacity="0.4"/>
        <g id="그룹_97046" data-name="그룹 97046" transform="translate(0 112.773)">
          <path id="패스_34541" data-name="패스 34541" d="M27.918,261.355c.311-.738-1.279-11.184-.838-12.165,1.48-3.3-.862-8.865-3.266-10.235-8.875-5.063-8.746.771-2.3,5.005,0,0-8.846-14.311-14.766-5.8,0,0-3.8.043-3.4,5.738,0,0-4.354.426-3.132,5.872,0,0,11.236,14.029,17.76,18.186l9.938-6.6Z" transform="translate(0.001 -235.456)" fill="#fff"/>
          <path id="패스_34542" data-name="패스 34542" d="M115.218,291.075c-13.186-.853-25.8-4.143-38.446-7.539-6.279-1.686-11.591-4.584-16.979-8.118-.857-.565-11.437-8.219-11.773-7.936l-17.5,16.261s39.667,41.377,93.358,40.05c0,0,4.224-19.259,4.22-19.292-1.854-8.956,10.211-14.278,7.9-15.221-.1-.038-5.451,2.792-20.782,1.8Z" transform="translate(-15.902 -252.139)" fill="#fff"/>
        </g>
        <g id="그룹_97048" data-name="그룹 97048" transform="translate(34.962 253.861)">
          <path id="패스_34543" data-name="패스 34543" d="M159.7,612.683c8.861-17.525,30.816-71.1,35.792-77.03l-39.543-5.623S142.314,572.149,132.84,600.4" transform="translate(-104.177 -530.03)" fill="#e8c5b8"/>
          <g id="그룹_97047" data-name="그룹 97047" transform="translate(0 72.528)">
            <path id="패스_34544" data-name="패스 34544" d="M122.551,681.46c-4.023,12-6.662,22.832-8.751,28.33l26.558,9.651s5.508-11.433,12.443-25.145" transform="translate(-94.256 -681.46)" fill="#fff"/>
            <path id="패스_34545" data-name="패스 34545" d="M96.8,731.427s-17.3-1.906-23.651,4.79c0,0-1.308,1.183,3.769,2.888l38.043,13.847s3.075.948,5.441-9.4L96.8,731.422Z" transform="translate(-72.994 -707.364)" fill="#fff"/>
          </g>
        </g>
        <g id="그룹_97050" data-name="그룹 97050" transform="translate(130.569 242.074)">
          <path id="패스_34546" data-name="패스 34546" d="M332.925,558.934c-3.223-1.552-6.571-3.18-9.929-4.837,0,0-13.444-44.691-18.368-48.676L272.61,536.528s19.963,34.954,31.76,42.708c2.711,1.782,13.775,5.81,16.74,6.739" transform="translate(-272.61 -505.42)" fill="#e8c5b8"/>
          <g id="그룹_97049" data-name="그룹 97049" transform="translate(46.732 50.865)">
            <path id="패스_34547" data-name="패스 34547" d="M370.18,645.975c12.084,3.808,22.975,5.7,28.512,7.687l10.46-27.411a131.449,131.449,0,0,0-23.584-14.632" transform="translate(-370.18 -611.62)" fill="#fff"/>
            <path id="패스_34548" data-name="패스 34548" d="M422.349,663.31s-3.415,17.348,3.4,23.569c0,0,3.022,1.288,4.636-3.808l13.19-38.245s.9-3.118-9.5-5.3l-11.725,23.785Z" transform="translate(-396.917 -626.162)" fill="#fff"/>
          </g>
        </g>
        <path id="패스_34549" data-name="패스 34549" d="M128.29,569.342l25.945-110,53.226,14.79L160.873,578.384" transform="translate(-66.844 -239.337)" fill="#fff"/>
        <path id="패스_34550" data-name="패스 34550" d="M319.723,537.079c-7.18-6.116-18.095-22.152-19.972-27.823-4.042-12.2-8.985-36.745-11.605-54.577L235.12,473.4s9.541,30.145,19.431,50.961c13.128,27.641,36.769,34.178,48.791,39.749" transform="translate(-122.507 -236.908)" fill="#fff"/>
        <path id="패스_34551" data-name="패스 34551" d="M258.34,531.247a5.667,5.667,0,0,1,3.214-4.057c12.961-5.882,30.586-22.9,30.634-22.971a5.693,5.693,0,0,1,7.879-1.36,5.636,5.636,0,0,1,1.437,7.817c-.642.939-19.436,19.652-35.261,26.831a5.662,5.662,0,0,1-7.9-6.255Z" transform="translate(-134.549 -261.48)" fill="#96b1ef"/>
        <path id="패스_34552" data-name="패스 34552" d="M167.623,412.909c-2.232-24.412-.153-71.043.479-79.109.335-4.3,11.073-11.409,11.524-15.643l18.258-4.579,26.879-.038,18.933,4.282a401.825,401.825,0,0,1,9.68,39.629c.776,3.865,7.481,32.77,7.769,37.488-11.945,4.885-55.209,24.92-93.526,17.97Z" transform="translate(-86.813 -163.368)" fill="#fff"/>
        <path id="패스_34553" data-name="패스 34553" d="M320.307,396.93a82.028,82.028,0,0,0,2.419,12.664l-5.431-3.918A61.068,61.068,0,0,1,315,395.67" transform="translate(-164.128 -206.162)" fill="#e17f5f"/>
        <g id="그룹_97052" data-name="그룹 97052" transform="translate(90.643 184.786)">
          <path id="패스_34554" data-name="패스 34554" d="M190.059,385.81s30.284,4.042,50.879,2.021v36.511s-31.094,3.918-51.689-2.816Z" transform="translate(-189.25 -385.81)" fill="#ccdbf2"/>
          <path id="패스_34555" data-name="패스 34555" d="M224.67,403.97a174.222,174.222,0,0,0,27.755.6V421.15a65.973,65.973,0,0,1-27.755,0Z" transform="translate(-207.705 -395.272)" fill="#fff"/>
          <g id="그룹_97051" data-name="그룹 97051" transform="translate(5.556 7.285)">
            <path id="패스_34556" data-name="패스 34556" d="M200.85,403.166A2.151,2.151,0,1,0,203,401.02,2.146,2.146,0,0,0,200.85,403.166Z" transform="translate(-200.85 -401.02)" fill="#e17f5f"/>
            <path id="패스_34557" data-name="패스 34557" d="M200.85,422.406A2.151,2.151,0,1,0,203,420.26,2.146,2.146,0,0,0,200.85,422.406Z" transform="translate(-200.85 -411.045)" fill="#5bafaf"/>
            <path id="패스_34558" data-name="패스 34558" d="M200.85,441.656A2.151,2.151,0,1,0,203,439.51,2.146,2.146,0,0,0,200.85,441.656Z" transform="translate(-200.85 -421.075)" fill="#7891e7"/>
          </g>
        </g>
        <g id="그룹_97056" data-name="그룹 97056" transform="translate(122.168 160.134)">
          <line id="선_14" data-name="선 14" x2="6.389" y2="12.482" transform="translate(11.289 51.392)" fill="none" stroke="#013518" stroke-linecap="round" stroke-linejoin="round" stroke-width="4.53"/>
          <path id="패스_34559" data-name="패스 34559" d="M280.866,451.366l27.43,70.842s-8.779-11.524-19.168-5.091L261.77,446.653S271.665,440.594,280.866,451.366Z" transform="translate(-258.561 -391.975)" fill="#eaeff4"/>
          <path id="패스_34560" data-name="패스 34560" d="M261.77,446.537a22.524,22.524,0,0,0,9.723,4.627c2.682.56,6.188,1.312,9.378.081,0,0-7.716-10.671-19.1-4.713Z" transform="translate(-258.561 -391.855)" fill="#37407a"/>
          <g id="그룹_97055" data-name="그룹 97055" transform="translate(4.957)">
            <path id="패스_34561" data-name="패스 34561" d="M265.42,384.913c17.918-11.016,79.076-46.918,86.03-50.573,0,0,12,.886,16.74,9l-82.917,48.724c-7.055-7.079-15.068-8.1-19.853-7.151Z" transform="translate(-265.42 -334.34)" fill="#a363c1"/>
            <g id="그룹_97054" data-name="그룹 97054" clip-path="url(#clip-path-2)">
              <g id="그룹_97053" data-name="그룹 97053" transform="translate(9 36.506)">
                <path id="패스_34562" data-name="패스 34562" d="M284.21,423.423a22.629,22.629,0,0,1,18.852,11.758l3.923-2.237s-6.126-9.206-17.075-12.194l-5.695,2.668Z" transform="translate(-284.21 -415.869)" fill="#fff"/>
                <path id="패스_34563" data-name="패스 34563" d="M299.81,412.984s11.572.038,18.411,12.007l3.923-2.237s-6.126-9.2-17.075-12.194l-5.259,2.419Z" transform="translate(-292.338 -410.56)" fill="#fff"/>
              </g>
            </g>
          </g>
          <path id="패스_34565" data-name="패스 34565" d="M385.428,427.924l-21.74-72.974a12.83,12.83,0,0,0-.891-1.82l-82.931,48.729c-6.375-6.418-15.916-11.27-23.153-5.714-.393.3-1.916,2.27-1.6,3.128.038.11,27.209,72.092,27.209,72.092a2.991,2.991,0,0,0,3.8-1.078l-27.846-71.479s9.814-6,18.986,4.588a1.355,1.355,0,0,1,.11.125l26.683,70.622c.086.225,2.716.79,3.2-1.346h0l78.17-44.878Z" transform="translate(-255.071 -344.13)" fill="#c181c8"/>
        </g>
        <g id="그룹_97057" data-name="그룹 97057" transform="translate(137.149 153.737)">
          <path id="패스_34566" data-name="패스 34566" d="M411.6,485.23c-.153,2.457-.268,4.359-.316,4.967-.172,2.131-.565,5.685,1.6,7.055,3.108,1.949,4.268-5.364,4.488-6.174,0,0,1.432,2.663,3.516,7.108.522,1.116-.422,3.592,1.418,2.883,1.26-.489,2.605-2.855,2.433-3.75l.057-2.519,1.767,4.363c1.188.383,2.538-.441,3.693-2.879l-1.154-5.053s-.685-.1.263,2.136c.445,1.035.283,3,1.657,2.96,1.48-.034,2.673-2.586,2.572-3.53a30.413,30.413,0,0,0-.513-4.124,9.644,9.644,0,0,1,1.557,2.534c.46.867-.637,1.609.431,1.585,1.873-.038,2.893-2.754,2.668-3.568-.8-2.831-.259-2.72-3.932-8.736l-3.056-12.462-17.635-.216c-.426-.014-1.116,10.753-1.528,17.424Z" transform="translate(-351.371 -397.487)" fill="#fff"/>
          <path id="패스_34567" data-name="패스 34567" d="M287.015,343.852a13.171,13.171,0,0,0,1.063,2.419c3.243,5.7,8.19,3.951,13.775,6.25,5.867,2.414,12.6,9.167,17.439,13.4a90.325,90.325,0,0,1,13.583,15.312c1.331,1.854,12.85,21.582,12.764,21.606.01,0,21.85-7.726,21.85-7.726,1.011-.283-8.564-22.6-9.091-23.636-8.727-17.372-18.325-33.35-37.689-45.223-6.2-3.8-14.661-6.768-21.836-4.459-8.281,2.668-14.651,13.425-11.859,22.056Z" transform="translate(-286.348 -320.984)" fill="#fff"/>
        </g>
        <path id="패스_34568" data-name="패스 34568" d="M258.5,301.538s-37.22,13.689-73.639-.958L183.8,312.7s37.608,13.483,75.129-.211l-.431-10.959Z" transform="translate(-95.767 -156.616)" fill="#5e68a2"/>
        <path id="패스_34569" data-name="패스 34569" d="M27.747,283.268a5.429,5.429,0,0,0,4.416-2.261c7.96-11.064,15.207-14.426,15.279-14.46a5.426,5.426,0,0,0-4.325-9.953c-1,.426-10.058,4.574-19.776,18.081a5.427,5.427,0,0,0,4.406,8.592Z" transform="translate(-11.63 -133.47)" fill="#5e68a2"/>
        <path id="패스_34570" data-name="패스 34570" d="M424.014,458.735a5.431,5.431,0,0,0-4.933.5c-11.437,7.424-19.412,7.931-19.493,7.936A5.424,5.424,0,0,0,400,478.013c1.087-.038,11.035-.613,25-9.68a5.422,5.422,0,0,0-.987-9.6Z" transform="translate(-205.509 -238.828)" fill="#5e68a2"/>
        <path id="패스_34571" data-name="패스 34571" d="M378.612,606.414a5.772,5.772,0,0,0-3.583,3.884c-3.88,14-12.6,25.691-12.659,25.749a5.785,5.785,0,0,0,7.994,8.363c.843-.8,11.083-13.938,15.82-31.027a5.787,5.787,0,0,0-7.572-6.969Z" transform="translate(-187.905 -315.784)" fill="#5e68a2"/>
        <path id="패스_34572" data-name="패스 34572" d="M158.332,686.211a5.784,5.784,0,0,0-4.258-3.132c-14.35-2.323-26.941-9.708-27-9.761a5.816,5.816,0,0,0-8.128.766,5.751,5.751,0,0,0,.68,8.085c.886.747,15.082,9.483,32.6,12.323a5.78,5.78,0,0,0,6.107-8.281Z" transform="translate(-61.271 -350.147)" fill="#5e68a2"/>
        <path id="패스_34573" data-name="패스 34573" d="M209.039,537a5.657,5.657,0,0,0-3.741-3.578c-13.645-4.052-33.436-18.507-33.493-18.564a5.7,5.7,0,0,0-7.994-.273,5.636,5.636,0,0,0-.354,7.936c.766.838,21.946,16.807,38.609,21.754a5.664,5.664,0,0,0,6.974-7.28Z" transform="translate(-84.404 -267.338)" fill="#96b1ef"/>
        <ellipse id="타원_16" data-name="타원 16" cx="10.863" cy="11.528" rx="10.863" ry="11.528" transform="translate(72.605 286.004)" fill="#96b1ef"/>
        <g id="그룹_97058" data-name="그룹 97058" transform="translate(112.613 217.771)" clip-path="url(#clip-path-3)">
          <ellipse id="타원_17" data-name="타원 17" cx="10.863" cy="11.528" rx="10.863" ry="11.528" transform="translate(27.578 74.185)" fill="#96b1ef"/>
        </g>
        <path id="패스_34576" data-name="패스 34576" d="M120.175,751.62a1.312,1.312,0,0,1-.421-.067L83.55,739.8a1.357,1.357,0,1,1,.838-2.582l36.2,11.754a1.358,1.358,0,0,1-.417,2.649Z" transform="translate(-43.044 -384.089)" fill="#ccdbf2"/>
        <path id="패스_34577" data-name="패스 34577" d="M432.963,683.985a1.365,1.365,0,0,1-1.3-1.743l9.656-32.852a1.358,1.358,0,1,1,2.605.766l-9.656,32.852A1.361,1.361,0,0,1,432.963,683.985Z" transform="translate(-224.885 -337.853)" fill="#ccdbf2"/>
        <path id="패스_34578" data-name="패스 34578" d="M314.293,356.722c-1.624-11.006-1.279-28.143,14.057-35.8l3.923,2.711S316.8,331.246,319.6,357.982" transform="translate(-163.422 -167.214)" fill="#e17f5f"/>
        <path id="패스_34579" data-name="패스 34579" d="M171.241,311.74s-9.047,21.266-8.449,53.04l-3.923-8.741s-2.414-25.619,7.544-45.209l4.828.905Z" transform="translate(-82.644 -161.956)" fill="#e17f5f"/>
        <path id="패스_34580" data-name="패스 34580" d="M394.295,96.051A1.362,1.362,0,0,1,393,95.107,67.138,67.138,0,0,0,379.744,71.96a1.357,1.357,0,0,1,1.969-1.868,68.573,68.573,0,0,1,13.875,24.192,1.354,1.354,0,0,1-.876,1.705,1.4,1.4,0,0,1-.412.067Z" transform="translate(-197.669 -36.301)" fill="#fff"/>
      </g>
      <g id="그룹_97062" data-name="그룹 97062" transform="translate(72.937 14.524)">
        <path id="패스_34581" data-name="패스 34581" d="M153.588,98.888c.048-.172.1-.35.158-.536a40.376,40.376,0,0,1,21.3-24.652s17.626-8.966,41-3.645l1.207-.187,1.437.843a70.014,70.014,0,0,1,8.214,2.773c26.184,10.676,31.817,28.23,32.746,30.95,2.625,7.7,1.9,17.415-12.941,20.212-22.324,4.215-83.937-12.041-83.937-12.041s-.1-.01-.263-.038l-.081.436-.206-.235S147.975,111,153.593,98.883Z" transform="translate(-152.282 -50.146)" fill="#768192"/>
        <g id="그룹_97060" data-name="그룹 97060" transform="translate(28.544)">
          <path id="패스_34582" data-name="패스 34582" d="M214.2,56.62l-.024.01S214.19,56.63,214.2,56.62Z" transform="translate(-213.077 -44.025)" fill="#768192"/>
          <path id="패스_34583" data-name="패스 34583" d="M214.183,56.65Z" transform="translate(-213.076 -44.041)" fill="#768192"/>
          <path id="패스_34584" data-name="패스 34584" d="M212.837,43.115s.048-.057.086-.1.057-.062.086-.1c4.052-4.569,13.425-12.213,31-12.577,2.237-.043,11.969-.484,19.417,5.843A28.946,28.946,0,0,1,271.6,48.527a.134.134,0,0,0,0,.024c.225.512,3.98,9.637-10.254,5.067-14.646-4.7-29.849-5.743-33.9-4.6-13.171,3.7-16.476,3.41-15.389-2.725a31.379,31.379,0,0,1,.766-3.175Z" transform="translate(-211.878 -30.324)" fill="#768192"/>
        </g>
        <path id="패스_34585" data-name="패스 34585" d="M259.757,79.42S238.5,34.805,181.917,53.235c0,0-22.889,5.92-26.577,34.9,0,0,14.795-23.929,50.482-23.392S261.247,94.22,261.247,94.22s2.706-5.637-1.485-14.8Z" transform="translate(-153.875 -39.937)" fill="#9aa7b6"/>
        <path id="패스_34586" data-name="패스 34586" d="M160.995,138.568c2.8-5.465,2.955-6.82,2.955-6.82,6.6-24.637,25.3-28.182,25.3-28.182,47.857-10.786,60.827,21.064,60.995,21.457,3.348,7.965-.321,16.8-.321,16.8,10.776-.34,11.94,7.682,11.423,22.722s-10.029,16.95-10.173,16.677c-.067-.139-.3,1.188-1.341,3.353a39.445,39.445,0,0,1-5.235,7.879c-11.706,15.02-43.915,11.121-45.994,10.848-12.831-.853-24.791-4.761-30.471-13.492-13.832-21.27-9.474-46.071-7.136-51.243Z" transform="translate(-155.497 -67.325)" fill="#99a6b4"/>
        <g id="그룹_97061" data-name="그룹 97061" transform="translate(14.327 54.077)">
          <path id="패스_34587" data-name="패스 34587" d="M246.82,186.537c-.565,3.468-1.006,6.983-1.734,10.422-.627,2.955-1.844,5.958-4.531,7.606a8.008,8.008,0,0,1-8.2.216c-2.74-1.614-3.875-4.464-4.023-7.529a36.4,36.4,0,0,1,1.523-11.792c.417-1.432,2.72-1.006,2.3.441a37.077,37.077,0,0,0-1.494,9.206c-.072,2.467,0,5.326,2.026,7.06a5.6,5.6,0,0,0,6.37.57c2.323-1.308,3.238-3.86,3.755-6.337.7-3.405,1.154-6.878,1.71-10.307.239-1.485,2.538-1.044,2.3.441h0Z" transform="translate(-206.216 -164.773)" fill="#768192"/>
          <path id="패스_34588" data-name="패스 34588" d="M299.011,191.351a6.763,6.763,0,0,0-11.164-1.691c-1.02,1.106-2.788-.426-1.763-1.537a9.1,9.1,0,0,1,15.135,2.452,1.177,1.177,0,0,1-.714,1.49,1.2,1.2,0,0,1-1.494-.714Z" transform="translate(-236.164 -165.046)" fill="#768192"/>
          <path id="패스_34589" data-name="패스 34589" d="M195.431,185.291a6.763,6.763,0,0,0-11.164-1.691c-1.02,1.106-2.788-.426-1.763-1.537a9.1,9.1,0,0,1,15.135,2.452,1.177,1.177,0,0,1-.714,1.49,1.2,1.2,0,0,1-1.494-.714h0Z" transform="translate(-182.195 -161.889)" fill="#768192"/>
          <path id="패스_34590" data-name="패스 34590" d="M242.063,239.2a39.325,39.325,0,0,1-35.122,1.633c-3.262-1.466-6.543-3.367-8.741-6.255-.915-1.2,1.025-2.5,1.935-1.312,1.8,2.356,4.512,3.894,7.141,5.144a35.272,35.272,0,0,0,8,2.677,37.4,37.4,0,0,0,16.6-.3,35.4,35.4,0,0,0,8.87-3.525c1.3-.742,2.625,1.188,1.312,1.935h0Z" transform="translate(-190.409 -189.897)" fill="#768192"/>
          <path id="패스_34591" data-name="패스 34591" d="M251.643,150.083c-6.049-3.372-12.764-5.178-19.709-4.272a36.186,36.186,0,0,0-11.572,3.765c-.963.489-1.868-.3-2.725-.728-.953-.474-1.925-.915-2.917-1.308a28.914,28.914,0,0,0-5.465-1.59,24.762,24.762,0,0,0-13.521,1.408c-1.408.546-2.184-1.662-.781-2.2a27.26,27.26,0,0,1,13.2-1.734,34.254,34.254,0,0,1,12.06,4.143c-.393.029-.785.053-1.173.081a38.1,38.1,0,0,1,14.268-4.325,31.831,31.831,0,0,1,12.8,1.705,40.238,40.238,0,0,1,6.566,2.965c1.308.728.283,2.835-1.035,2.1h0Z" transform="translate(-188.457 -143.229)" fill="#768192"/>
        </g>
      </g>
    </g>
  </g>
</svg>
