<svg id="charac1" xmlns="http://www.w3.org/2000/svg" xmlns:xlink="http://www.w3.org/1999/xlink" width="247.098" height="372" viewBox="0 0 247.098 372">
  <defs>
    <clipPath id="clip-path">
      <rect id="사각형_35332" data-name="사각형 35332" width="247.098" height="372" fill="none"/>
    </clipPath>
    <clipPath id="clip-path-2">
      <path id="패스_34614" data-name="패스 34614" d="M228.12,574.054c7.06-6.241,17.678-22.468,19.45-28.177,3.822-12.28,8.339-36.918,10.642-54.8l39.868,9.239s4.373,38.891-5.139,59.889c-12.625,27.875-36.108,34.82-48.01,40.606" transform="translate(-228.12 -491.08)" fill="none"/>
    </clipPath>
    <clipPath id="clip-path-3">
      <path id="패스_34625" data-name="패스 34625" d="M111.74,517.364c7.218-6.059,18.243-22.013,20.164-27.674,4.133-12.175,9.268-36.693,12.031-54.51l52.776,19.158s-8.449,31.587-18.492,52.336c-13.329,27.545-37.545,29.978-51.761,34.312" transform="translate(-111.74 -435.18)" fill="none"/>
    </clipPath>
  </defs>
  <g id="그룹_97083" data-name="그룹 97083" clip-path="url(#clip-path)">
    <g id="그룹_97082" data-name="그룹 97082" transform="translate(0 0.002)">
      <g id="그룹_97078" data-name="그룹 97078">
        <path id="패스_34592" data-name="패스 34592" d="M155,306.25s-38.111-9.292-41.789,13.387c-2.127,23.191-4.143,46.42-6.2,69.6-.982,11.107.125,18.871,11.49,23.483,11.452,4.646,23.613,4.646,35.668,2.567L170.6,346.242Z" transform="translate(-55.609 -158.589)" fill="#ccdbf2"/>
        <path id="패스_34593" data-name="패스 34593" d="M101.838,77.669C101.11,35.545,136.246.778,180.32.016s80.388,32.77,81.111,74.894-34.413,76.892-78.482,77.653-80.388-32.77-81.116-74.894Z" transform="translate(-53.056 -0.003)" fill="#fff" opacity="0.4"/>
        <g id="그룹_97065" data-name="그룹 97065" transform="translate(136.503 94.541)">
          <path id="패스_34594" data-name="패스 34594" d="M462.09,226.766c-.484-.637-1.513-11.16-2.179-12-2.242-2.835-1.341-8.808.647-10.729,7.342-7.089,8.65-1.4,3.453,4.291,0-.01,5.043-16.055,12.865-9.253,0,0,3.683-.891,4.7,4.732,0,0,4.315-.656,4.473,4.924,0,0-7.424,16.366-12.716,22L462.09,226.77Z" transform="translate(-375.452 -197.392)" fill="#fff"/>
          <path id="패스_34595" data-name="패스 34595" d="M305.759,278.891c12.553-4.066,23.948-10.36,35.347-16.759,5.666-3.175,10.087-7.294,14.436-12.046.695-.757,9.052-10.781,9.44-10.59l20.93,11.466s-28.215,49.874-80.489,61.78c0,0-8.822-17.64-8.822-17.673-.407-9.138-13.392-11.332-11.39-12.822C285.293,282.186,291.17,283.618,305.759,278.891Z" transform="translate(-285.002 -219.329)" fill="#fff"/>
        </g>
        <path id="패스_34596" data-name="패스 34596" d="M268.41,409.477c1.806-24.46-1.073-71.072-1.844-79.133-.407-4.3-11.246-11.222-11.773-15.446l-18.3-4.268-26.826.426-18.823,4.612c-12.2,3.381-15.169,10.844-17.841,25.49-.709,3.88-1.288,40.381,6.514,73.419,12.007,4.684,50.769,2.51,88.894-5.106Z" transform="translate(-89.942 -161.854)" fill="#fff"/>
        <g id="그룹_97067" data-name="그룹 97067" transform="translate(114.173 181.221)">
          <path id="패스_34597" data-name="패스 34597" d="M289.125,378.37s-30.155,4.564-50.745,2.9l.632,36.525s31.1,3.381,51.54-3.712L289.13,378.37Z" transform="translate(-238.38 -378.37)" fill="#ccdbf2"/>
          <path id="패스_34598" data-name="패스 34598" d="M280.863,397.12A173.344,173.344,0,0,1,253.17,398.2l.287,18.392a92.386,92.386,0,0,0,27.7-2.289Z" transform="translate(-246.086 -388.14)" fill="#fff"/>
          <g id="그룹_97066" data-name="그룹 97066" transform="translate(41.884 7.4)">
            <path id="패스_34599" data-name="패스 34599" d="M330.121,395.932a2.146,2.146,0,1,1-2.184-2.112,2.146,2.146,0,0,1,2.184,2.112Z" transform="translate(-325.829 -393.819)" fill="#e17f5f"/>
            <path id="패스_34600" data-name="패스 34600" d="M330.451,415.192a2.146,2.146,0,1,1-2.179-2.112,2.146,2.146,0,0,1,2.179,2.112Z" transform="translate(-326.001 -403.855)" fill="#5bafaf"/>
            <path id="패스_34601" data-name="패스 34601" d="M330.781,434.442a2.146,2.146,0,1,1-2.184-2.112,2.143,2.143,0,0,1,2.184,2.112Z" transform="translate(-326.173 -413.885)" fill="#7891e7"/>
          </g>
        </g>
        <path id="패스_34602" data-name="패스 34602" d="M197.879,299.037s37.387,13.052,73.481-2.227l1.264,12.108s-37.3,14.139-74.985,1.087Z" transform="translate(-102.979 -154.653)" fill="#5e68a2"/>
        <path id="패스_34603" data-name="패스 34603" d="M465.341,251.1a5.413,5.413,0,0,1-4.828-1.106c-10.417-8.774-18.258-10.254-18.334-10.269a5.428,5.428,0,0,1,1.739-10.714c1.073.168,10.858,1.964,23.579,12.673a5.433,5.433,0,0,1-2.155,9.416Z" transform="translate(-228.052 -119.291)" fill="#5e68a2"/>
        <g id="그룹_97069" data-name="그룹 97069" transform="translate(0 98.76)">
          <g id="그룹_97068" data-name="그룹 97068">
            <path id="패스_34604" data-name="패스 34604" d="M24.2,235.432c.474-.647,1.365-11.184,2.021-12.036,2.2-2.864,1.226-8.827-.79-10.719-7.438-6.993-8.669-1.288-3.4,4.335,0-.01-5.259-15.983-12.989-9.076,0,0-3.693-.843-4.636,4.794,0,0-4.325-.6-4.406,4.981,0,0,7.644,16.27,13.008,21.831l11.188-4.1Z" transform="translate(0 -206.203)" fill="#fff"/>
            <path id="패스_34605" data-name="패스 34605" d="M101.3,286.416c-12.6-3.9-24.082-10.039-35.567-16.284-5.7-3.1-10.183-7.16-14.594-11.854-.7-.747-9.191-10.662-9.579-10.46L20.79,259.561s28.876,49.5,81.307,60.7c0,0,8.583-17.755,8.583-17.788.283-9.143,13.234-11.514,11.217-12.97-.086-.062-5.939,1.451-20.59-3.084Z" transform="translate(-10.833 -227.884)" fill="#fff"/>
          </g>
          <path id="패스_34606" data-name="패스 34606" d="M16.673,259.676a5.406,5.406,0,0,0,4.809-1.169c10.3-8.913,18.119-10.5,18.2-10.513A5.428,5.428,0,0,0,37.8,237.3c-1.073.182-10.829,2.107-23.407,12.989a5.429,5.429,0,0,0,2.28,9.383Z" transform="translate(-6.52 -222.367)" fill="#5e68a2"/>
        </g>
        <g id="그룹_97071" data-name="그룹 97071" transform="translate(82.736 259.463)">
          <path id="패스_34607" data-name="패스 34607" d="M241.14,595.751c3.19-1.609,6.5-3.3,9.823-5.01,0,0,12.649-44.94,17.491-49.012L300.947,572.3s-19.321,35.313-30.96,43.269c-2.677,1.83-13.645,6.049-16.591,7.031" transform="translate(-208.381 -541.73)" fill="#e8c5b8"/>
          <g id="그룹_97070" data-name="그룹 97070" transform="translate(0 51.406)">
            <path id="패스_34608" data-name="패스 34608" d="M227.906,683.162c-11.993,4.018-22.832,6.1-28.325,8.181L188.67,664.1a131.5,131.5,0,0,1,23.287-15.044" transform="translate(-181.041 -649.06)" fill="#fff"/>
            <path id="패스_34609" data-name="패스 34609" d="M194.27,701.343s3.7,17.3-2.989,23.636c0,0-3,1.341-4.694-3.731l-13.823-38.034s-.948-3.1,9.392-5.465l12.113,23.589Z" transform="translate(-172.742 -664.009)" fill="#fff"/>
          </g>
        </g>
        <path id="패스_34610" data-name="패스 34610" d="M228.12,578.556c7.06-6.241,17.678-22.468,19.45-28.177,3.822-12.28,2.936-32.775,5.24-50.659l44.4,6.921s5.249,37.066-4.263,58.064c-12.625,27.875-36.108,34.82-48.011,40.606" transform="translate(-118.861 -260.378)" fill="#fff"/>
        <path id="패스_34611" data-name="패스 34611" d="M321.027,503.826a5.867,5.867,0,0,0-5.216,1.145c-11.7,9.383-35.653,18.033-35.74,18.047a6.265,6.265,0,0,0-5.134,6.705,5.425,5.425,0,0,0,6.265,4.89c1.159-.172,27.2-9.143,41.487-20.6a6.019,6.019,0,0,0,1.221-8.257,5.379,5.379,0,0,0-2.883-1.935Z" transform="translate(-143.238 -262.414)" fill="#96b1ef"/>
        <path id="패스_34612" data-name="패스 34612" d="M232.978,643.8a5.766,5.766,0,0,1,3.64,3.822c4.109,13.933,13.018,25.48,13.08,25.538a5.813,5.813,0,0,1,.263,8.157,5.745,5.745,0,0,1-8.1.345c-.853-.786-11.3-13.756-16.323-30.763a5.779,5.779,0,0,1,7.443-7.1Z" transform="translate(-117.392 -335.28)" fill="#5e68a2"/>
        <g id="그룹_97072" data-name="그룹 97072" transform="translate(109.259 235.204)" clip-path="url(#clip-path-2)">
          <path id="패스_34613" data-name="패스 34613" d="M323.47,656.86c.11,6.37-4.655,11.615-10.642,11.72s-10.93-4.976-11.04-11.342,4.655-11.615,10.642-11.72,10.93,4.976,11.04,11.346Z" transform="translate(-266.503 -571.548)" fill="#96b1ef"/>
        </g>
        <g id="그룹_97073" data-name="그룹 97073" transform="translate(82.045 155.755)">
          <path id="패스_34615" data-name="패스 34615" d="M178.748,404.35a115.42,115.42,0,0,1-7.448,13.593l.594,9.914a237.677,237.677,0,0,0,12.271-22.971" transform="translate(-171.3 -366.441)" fill="#e17f5f"/>
          <path id="패스_34616" data-name="패스 34616" d="M191.418,363.646c5.11-9.881,10.374-26.2-1.614-38.446l-4.584,1.288s12.127,12.242.776,36.621" transform="translate(-178.553 -325.2)" fill="#e17f5f"/>
        </g>
        <path id="패스_34617" data-name="패스 34617" d="M352.8,307.867s9.981,19.728,9.349,52.915l3.765-8.808s1.969-25.667-8.305-45.094l-4.8.987Z" transform="translate(-183.824 -159.9)" fill="#e17f5f"/>
        <path id="패스_34618" data-name="패스 34618" d="M127.42,99.793a1.418,1.418,0,0,1-.393-.057,1.357,1.357,0,0,1-.91-1.691,50.624,50.624,0,0,1,13.152-22.037,1.357,1.357,0,1,1,1.8,2.031,48.817,48.817,0,0,0-12.352,20.787,1.355,1.355,0,0,1-1.3.967Z" transform="translate(-65.683 -39.427)" fill="#fff"/>
        <g id="그룹_97077" data-name="그룹 97077" transform="translate(23.443 208.43)">
          <g id="그룹_97075" data-name="그룹 97075" transform="translate(0 25.83)">
            <path id="패스_34619" data-name="패스 34619" d="M122.45,537.255c3.429-1,6.993-2.055,10.571-3.137,0,0,20.6-41.889,26.1-45.007l26.4,35.974s-25.413,31.2-38.3,36.913c-2.965,1.308-14.517,3.463-17.592,3.894" transform="translate(-87.245 -489.11)" fill="#e8c5b8"/>
            <g id="그룹_97074" data-name="그룹 97074" transform="translate(0 45.233)">
              <path id="패스_34620" data-name="패스 34620" d="M101.257,619.989c-12.525,1.767-23.56,1.844-29.336,2.883L66.14,594.1A131.3,131.3,0,0,1,91.769,583.55" transform="translate(-57.905 -583.55)" fill="#fff"/>
              <path id="패스_34621" data-name="패스 34621" d="M66.8,629s.5,17.683-7.232,22.7c0,0-3.185.771-3.937-4.521l-6.681-39.916s-.364-3.223,10.226-3.664L66.8,629Z" transform="translate(-48.947 -593.997)" fill="#fff"/>
            </g>
          </g>
          <path id="패스_34622" data-name="패스 34622" d="M107.85,514.1c8.08-4.852,21.467-18.876,24.25-24.168,5.992-11.375,14.9-34.782,20.423-51.948l46.454,31.156s-11.7,24.226-24.863,43.14c-17.477,25.112-41.832,27.664-54.587,31.185" transform="translate(-79.638 -436.639)" fill="#fff"/>
          <path id="패스_34623" data-name="패스 34623" d="M115.122,578.654a5.783,5.783,0,0,1,2.888,4.426c1.514,14.45,8.171,27.425,8.219,27.492a5.817,5.817,0,0,1-1.221,8.07,5.748,5.748,0,0,1-8.027-1.135c-.7-.924-8.616-15.58-10.465-33.225a5.78,5.78,0,0,1,8.612-5.628Z" transform="translate(-78.926 -509.541)" fill="#5e68a2"/>
          <g id="그룹_97076" data-name="그룹 97076" transform="translate(30.075)" clip-path="url(#clip-path-3)">
            <path id="패스_34624" data-name="패스 34624" d="M206.932,602.014c-.053,6.37-4.948,11.495-10.935,11.442s-10.8-5.254-10.748-11.624,4.952-11.495,10.939-11.442,10.8,5.254,10.748,11.619Z" transform="translate(-150.042 -516.051)" fill="#96b1ef"/>
          </g>
          <path id="패스_34626" data-name="패스 34626" d="M64.255,647.945a1.363,1.363,0,0,1-1.346-1.193l-4.09-34.006a1.356,1.356,0,1,1,2.692-.326l4.09,34.006a1.357,1.357,0,0,1-1.183,1.509c-.053,0-.11.01-.163.01Z" transform="translate(-54.085 -526.908)" fill="#ccdbf2"/>
        </g>
        <path id="패스_34627" data-name="패스 34627" d="M224.644,519.877a5.976,5.976,0,0,0-3.736-3.9c-14.306-5.259-34.413-21.448-34.466-21.51a6.444,6.444,0,0,0-8.535-.982,5.361,5.361,0,0,0-.967,7.888c.757.91,22.238,18.732,39.7,25.155a6.111,6.111,0,0,0,7.826-3.18A5.28,5.28,0,0,0,224.644,519.877Z" transform="translate(-91.513 -256.511)" fill="#96b1ef"/>
        <path id="패스_34628" data-name="패스 34628" d="M193.4,721.259a1.354,1.354,0,0,1-1.284-.92l-9.991-29.231a1.354,1.354,0,1,1,2.562-.877l9.991,29.231a1.35,1.35,0,0,1-.843,1.719,1.393,1.393,0,0,1-.441.072Z" transform="translate(-94.859 -359.165)" fill="#ccdbf2"/>
      </g>
      <g id="그룹_97081" data-name="그룹 97081" transform="translate(74.985 13.719)">
        <path id="패스_34629" data-name="패스 34629" d="M263.495,95.031q-.079-.251-.172-.532a40.268,40.268,0,0,0-21.879-24.024s-17.793-8.468-40.927-2.519L199.31,67.8l-1.408.881a69.683,69.683,0,0,0-8.1,2.993c-25.777,11.366-30.988,28.6-31.673,31.391-1.557,5.733-1.293,14.479,13.554,16.869,22.343,3.6,83.041-10.958,83.041-10.958s.1-.014.263-.043l.1.436.2-.239s14.139-2.155,8.214-14.091Z" transform="translate(-157.046 -48.025)" fill="#768192"/>
        <g id="그룹_97079" data-name="그룹 97079" transform="translate(18.501)">
          <path id="패스_34630" data-name="패스 34630" d="M317.79,53.1l.024.01S317.8,53.11,317.79,53.1Z" transform="translate(-259.068 -41.388)" fill="#768192"/>
          <path id="패스_34631" data-name="패스 34631" d="M317.84,53.12Z" transform="translate(-259.094 -41.399)" fill="#768192"/>
          <path id="패스_34632" data-name="패스 34632" d="M254.085,40.546s-.048-.057-.086-.1-.057-.062-.086-.1c-4.157-4.449-13.7-11.825-31.209-11.706-2.227.019-11.931-.158-19.177,6.361a28.924,28.924,0,0,0-7.8,12.534.135.135,0,0,1,0,.024c-.211.517-3.7,9.723,10.345,4.78,14.455-5.087,29.566-6.543,33.623-5.518,13.214,3.329,16.5,2.955,15.25-3.137a31.521,31.521,0,0,0-.848-3.147Z" transform="translate(-195.186 -28.647)" fill="#768192"/>
        </g>
        <path id="패스_34633" data-name="패스 34633" d="M158.633,78.616s19.958-45.1,76.791-28.249c0,0,22.952,5.288,27.411,34.111,0,0-15.379-23.478-50.9-21.974S157.556,93.43,157.556,93.43s-2.845-5.551,1.078-14.814Z" transform="translate(-156.559 -37.999)" fill="#9aa7b6"/>
        <path id="패스_34634" data-name="패스 34634" d="M263.158,133.878c-2.941-5.379-3.128-6.729-3.128-6.729-7.237-24.408-25.955-27.435-25.955-27.435-47.618-12.371-59.989,22.674-60.147,23.071-3.113,8.037.776,16.759.776,16.759-10.738-.048-11.677,7.989-10.757,22.985s10.446,16.644,10.58,16.366c.067-.139.326,1.178,1.427,3.31a39.4,39.4,0,0,0,5.427,7.721c12.065,14.67,44.03,9.9,46.09,9.574,12.755-1.2,24.556-5.427,29.973-14.3,13.2-21.6,8.181-46.234,5.709-51.33Z" transform="translate(-160.268 -64.299)" fill="#99a6b4"/>
        <g id="그룹_97080" data-name="그룹 97080" transform="translate(29.243 53.126)">
          <path id="패스_34635" data-name="패스 34635" d="M268.849,183.719c.656,3.448,1.193,6.94,2.007,10.355.7,2.931,2,5.9,4.718,7.467a7.974,7.974,0,0,0,8.171,0c2.687-1.686,3.736-4.56,3.8-7.625a36.4,36.4,0,0,0-1.834-11.725c-.455-1.418-2.735-.929-2.275.5a36.953,36.953,0,0,1,1.739,9.148c.139,2.462.148,5.312-1.83,7.1a5.571,5.571,0,0,1-6.327.742c-2.347-1.245-3.329-3.765-3.908-6.222-.8-3.377-1.336-6.83-1.983-10.24a1.166,1.166,0,0,0-2.275.5h0Z" transform="translate(-244.3 -161.332)" fill="#768192"/>
          <path id="패스_34636" data-name="패스 34636" d="M220.395,190.067a6.728,6.728,0,0,1,11.069-1.992c1.044,1.073,2.764-.5,1.715-1.585a9.06,9.06,0,0,0-15.006,2.859,1.166,1.166,0,1,0,2.218.718h0Z" transform="translate(-217.868 -162.541)" fill="#768192"/>
          <path id="패스_34637" data-name="패스 34637" d="M323.365,181.2a6.728,6.728,0,0,1,11.069-1.992c1.044,1.073,2.764-.5,1.715-1.585a9.06,9.06,0,0,0-15.006,2.859,1.166,1.166,0,1,0,2.218.718h0Z" transform="translate(-271.52 -157.919)" fill="#768192"/>
          <path id="패스_34638" data-name="패스 34638" d="M246.858,236.1a39.088,39.088,0,0,0,35.012.675c3.209-1.552,6.423-3.539,8.535-6.48.876-1.221-1.092-2.476-1.964-1.255-1.724,2.4-4.387,4.009-6.974,5.331a35.182,35.182,0,0,1-7.9,2.893,37.1,37.1,0,0,1-16.529.148,35.125,35.125,0,0,1-8.928-3.276c-1.317-.7-2.582,1.26-1.255,1.969h0Z" transform="translate(-232.558 -185.925)" fill="#768192"/>
          <path id="패스_34639" data-name="패스 34639" d="M219.279,147.692c5.934-3.53,12.568-5.518,19.508-4.8a35.967,35.967,0,0,1,11.624,3.439c.972.46,1.854-.354,2.692-.8.939-.5,1.892-.963,2.869-1.384a28.478,28.478,0,0,1,5.4-1.734,24.676,24.676,0,0,1,13.5,1.035c1.418.508,2.127-1.719.714-2.222a27.073,27.073,0,0,0-13.2-1.37A34.106,34.106,0,0,0,250.5,144.32c.393.014.781.034,1.173.048a37.8,37.8,0,0,0-14.326-3.927,31.648,31.648,0,0,0-12.7,2.05,39.969,39.969,0,0,0-6.456,3.137c-1.284.766-.206,2.835,1.087,2.064Z" transform="translate(-217.615 -139.568)" fill="#768192"/>
        </g>
      </g>
    </g>
  </g>
</svg>
