<svg id="charac4" xmlns="http://www.w3.org/2000/svg" xmlns:xlink="http://www.w3.org/1999/xlink" width="131.789" height="157" viewBox="0 0 131.789 157">
  <defs>
    <clipPath id="clip-path">
      <rect id="사각형_35333" data-name="사각형 35333" width="131.789" height="157" fill="none"/>
    </clipPath>
    <clipPath id="clip-path-2">
      <path id="패스_34670" data-name="패스 34670" d="M228.58,489.119c3.1-1.759,8.312-6.944,9.42-8.922a153.657,153.657,0,0,0,8.247-19.5l18.322,10.81a185.991,185.991,0,0,1-10.887,17.584c-6.867,9.349-16.111,10.075-20.974,11.281" transform="translate(-228.58 -460.7)" fill="none"/>
    </clipPath>
  </defs>
  <g id="그룹_97097" data-name="그룹 97097" clip-path="url(#clip-path)">
    <g id="그룹_97096" data-name="그룹 97096" transform="translate(0.001)">
      <path id="패스_34640" data-name="패스 34640" d="M591.616,302.732c.37-1.049.505-3.8,1.8-4.105,1.338-.315.932,2.418.92,2.731,0,0,1.215-1.183,2.466-2.5.315-.334,1.34-1.656,1.924-1.178.4.325-.473,1.656-.633,1.953l-.661,1.316s3.036-3.192,3.3-2.064c.077.323-.2.841-.77,1.783l-1.383,2.068a4.666,4.666,0,0,0,.954-.885c.275-.313,1.31-1.615,1.8-1.433.53.19-.418,1.571-.562,1.894a20.286,20.286,0,0,1-1.047,1.815A7.78,7.78,0,0,0,600.965,303c.265-.253,1.043-.976,1.423-.839.669.241-.358,1.658-.53,1.914a10.733,10.733,0,0,1-2.8,3.038l-4.492,2.638-4.459-4.958c.346-.4.687-.807,1.033-1.207a2.609,2.609,0,0,0,.473-.849Z" transform="translate(-470.826 -237.421)" fill="#fff"/>
      <path id="패스_34641" data-name="패스 34641" d="M254.4,325.626s-13.388-6.454-16.531,1.672c-2.62,6.776-4.166,14.029-6.456,20.923-.948,2.852-2.565,6.515-2.282,9.6.35,3.82,3.81,5.039,7.006,6.442a26.6,26.6,0,0,0,9.391,1.761l11.51-24.328L254.4,325.624Z" transform="translate(-182.789 -257.864)" fill="#c7d5eb"/>
      <ellipse id="타원_18" data-name="타원 18" cx="28.346" cy="30.739" rx="28.346" ry="30.739" transform="translate(52.838 65.994) rotate(-78.6)" fill="#fff" opacity="0.4"/>
      <path id="패스_34642" data-name="패스 34642" d="M430.858,335.33a74.4,74.4,0,0,0,14.592-2.541,21.838,21.838,0,0,0,6.485-2.939c.329-.206,4.39-3.024,4.514-2.913l6.479,6.317s-15.336,15.371-35.615,14.419c0,0-1.437-7.344-1.433-7.356.774-3.384-3.74-5.5-2.86-5.844.036-.014,2.036,1.106,7.837.857Z" transform="translate(-337.42 -260.848)" fill="#fff"/>
      <g id="그룹_97085" data-name="그룹 97085" transform="translate(75.46 111.512)">
        <path id="패스_34643" data-name="패스 34643" d="M381.032,582.951c-2.021-7.17-6.3-28.722-7.722-31.291l15.078.764s2.021,16.681,3.5,27.893" transform="translate(-373.31 -551.66)" fill="#e3c1b4"/>
        <g id="그룹_97084" data-name="그룹 97084" transform="translate(6.406 29.49)">
          <path id="패스_34644" data-name="패스 34644" d="M417.153,697.55c.627,4.764.825,8.989,1.2,11.188l-10.55,1.676s-1.219-4.657-2.8-10.269" transform="translate(-405 -697.55)" fill="#fff"/>
          <path id="패스_34645" data-name="패스 34645" d="M426.754,743.51s6.557.542,8.429,3.495c0,0,.4.536-1.607.8l-15.116,2.409s-1.209.131-1.34-3.9Z" transform="translate(-414.67 -734.22)" fill="#fff"/>
        </g>
      </g>
      <g id="그룹_97087" data-name="그룹 97087" transform="translate(35.456 102.4)">
        <path id="패스_34646" data-name="패스 34646" d="M241.84,524.473c1.308-.346,2.668-.709,4.033-1.083,0,0,8.215-15.68,10.329-16.81l9.636,13.907s-9.931,11.581-14.867,13.616a46.549,46.549,0,0,1-6.7,1.3" transform="translate(-228.412 -506.58)" fill="#e3c1b4"/>
        <g id="그룹_97086" data-name="그룹 97086" transform="translate(0 16.776)">
          <path id="패스_34647" data-name="패스 34647" d="M204,603.485c-4.758.546-8.937.463-11.134.8l-1.9-10.97a49.664,49.664,0,0,1,9.806-3.746" transform="translate(-187.816 -589.57)" fill="#fff"/>
          <path id="패스_34648" data-name="패스 34648" d="M181.95,616.131s.014,6.711-2.963,8.536c0,0-1.215.261-1.445-1.755l-2.133-15.2s-.107-1.227,3.907-1.288Z" transform="translate(-175.409 -603.014)" fill="#fff"/>
        </g>
      </g>
      <path id="패스_34649" data-name="패스 34649" d="M378.324,535.674l-1.686-42.864-20.818,1.66,9.761,42.217" transform="translate(-283.895 -393.193)" fill="#fff"/>
      <path id="패스_34650" data-name="패스 34650" d="M228.58,489.119c3.1-1.759,8.312-6.944,9.42-8.922a153.657,153.657,0,0,0,8.247-19.5l18.322,10.81a185.991,185.991,0,0,1-10.887,17.584c-6.867,9.349-16.111,10.075-20.974,11.281" transform="translate(-182.376 -367.574)" fill="#fff"/>
      <path id="패스_34651" data-name="패스 34651" d="M334.3,387.158c2.591-8.935,5.185-26.46,5.533-29.512.186-1.625-3.287-5.051-3.147-6.661l-6.444-3.026L320.273,346l-7.334.226c-2.583,4.942-6.394,5.68-8.534,10.905-.566,1.383-1.734,8.053-2.036,20.4C306.449,380.22,319.586,386.976,334.3,387.158Z" transform="translate(-241.25 -276.06)" fill="#fff"/>
      <path id="패스_34652" data-name="패스 34652" d="M202.464,316.272s3.727,11.623,4.742,12.492c2.256,1.935,5.064-.92,6.646-2.2,3.764-3.044,8.593-4.874,13.382-3.058l-4.71,11.413c-5.751,11.035-15.914,7.976-15.914,7.976C192.048,339.4,193.1,317.39,193.1,317.39s9.292-1.108,9.359-1.12Z" transform="translate(-154.057 -252.339)" fill="#fff"/>
      <path id="패스_34653" data-name="패스 34653" d="M198.917,317.8a2.053,2.053,0,0,1-1.425,1.223c-5.015,1.195-7.235,3.25-7.257,3.273a2.056,2.056,0,0,1-2.862-2.951c.3-.289,3.046-2.868,9.171-4.326a2.057,2.057,0,0,1,2.373,2.785Z" transform="translate(-149.012 -251.296)" fill="#5a6398"/>
      <g id="그룹_97089" data-name="그룹 97089">
        <g id="그룹_97088" data-name="그룹 97088" transform="translate(41.511)">
          <path id="패스_34654" data-name="패스 34654" d="M222.675,53.44,205.36,47.263,215.786,35.09l7.091,2.61Z" transform="translate(-205.36 -27.997)" fill="#e3c1b4"/>
          <path id="패스_34655" data-name="패스 34655" d="M264.031,9.7l-7.091-2.61L263.477,0Z" transform="translate(-246.514)" fill="#d68ca7"/>
        </g>
        <path id="패스_34656" data-name="패스 34656" d="M23.839,550.576s-3.339,10.616-4.791,11.3c-3.814,1.8-10.881,1.34-14.813-1.308-7.362-4.969-3.541-13.885-.327-18.5C3.908,542.07,23.789,550.556,23.839,550.576Z" transform="translate(-0.004 -432.496)" fill="#7593ca"/>
        <path id="패스_34657" data-name="패스 34657" d="M39.243,529.449,19.31,520.943l2.26-5.353,19.884,8.158Z" transform="translate(-15.407 -411.369)" fill="#fff"/>
        <path id="패스_34658" data-name="패스 34658" d="M83.153,101.227,50.374,188.535,30.49,180.377,65.759,95.45Z" transform="translate(-24.328 -76.156)" fill="#d68ca7"/>
      </g>
      <path id="패스_34659" data-name="패스 34659" d="M219.391,291.8s-.121-5.484-3.612-6.4c0,0-1.3-.016.15,2.284l.6,1.779s-1.512,1.955-.57,2.779l3.43-.441Z" transform="translate(-171.735 -227.709)" fill="#fff"/>
      <g id="그룹_97091" data-name="그룹 97091" transform="translate(72.115 83.274)">
        <path id="패스_34660" data-name="패스 34660" d="M378.421,414.887s-11.528-.685-19.025-2.927l-2.636,13.6s11.255,3.709,19.383,2.688Z" transform="translate(-356.76 -411.96)" fill="#c7d5eb"/>
        <path id="패스_34661" data-name="패스 34661" d="M385.62,429.653a65.793,65.793,0,0,1-10.344-1.783l-1.2,6.175a24.849,24.849,0,0,0,10.3,2.007l1.239-6.4Z" transform="translate(-370.579 -424.654)" fill="#fff"/>
        <g id="그룹_97090" data-name="그룹 97090" transform="translate(16.282 5.126)">
          <path id="패스_34662" data-name="패스 34662" d="M445.5,438.287a.812.812,0,1,1-.643-.956A.812.812,0,0,1,445.5,438.287Z" transform="translate(-442.556 -437.316)" fill="#d27a5e"/>
          <path id="패스_34663" data-name="패스 34663" d="M442.206,455.277a.812.812,0,1,1-.643-.956A.812.812,0,0,1,442.206,455.277Z" transform="translate(-439.931 -450.872)" fill="#5da3a3"/>
          <path id="패스_34664" data-name="패스 34664" d="M438.916,472.277a.812.812,0,1,1-.643-.956A.812.812,0,0,1,438.916,472.277Z" transform="translate(-437.306 -464.436)" fill="#7488c2"/>
        </g>
      </g>
      <path id="패스_34665" data-name="패스 34665" d="M343.57,327.45s12.824,7.792,27.394,4.971l-.483,4.593s-14.928,2.3-27.861-5.512Z" transform="translate(-273.364 -261.259)" fill="#5a6398"/>
      <path id="패스_34666" data-name="패스 34666" d="M584.184,328.311a2.052,2.052,0,0,1-1.476-1.16c-2.155-4.7-4.6-6.477-4.625-6.493a2.074,2.074,0,0,1-.507-2.86,2.038,2.038,0,0,1,2.83-.536c.342.232,3.4,2.432,6.034,8.166a2.063,2.063,0,0,1-1.007,2.731,2.032,2.032,0,0,1-1.247.152Z" transform="translate(-460.536 -252.848)" fill="#5a6398"/>
      <path id="패스_34667" data-name="패스 34667" d="M230.828,584.766a2.2,2.2,0,0,1,1.049,1.706,33.343,33.343,0,0,0,2.838,10.509,2.209,2.209,0,0,1-.544,3.048,2.174,2.174,0,0,1-3.028-.511,34.685,34.685,0,0,1-3.63-12.7,2.187,2.187,0,0,1,3.315-2.048Z" transform="translate(-181.519 -466.308)" fill="#5a6398"/>
      <path id="패스_34668" data-name="패스 34668" d="M397.827,692.21a2.184,2.184,0,0,1,1.805-.859,33.037,33.037,0,0,0,10.724-1.684,2.193,2.193,0,0,1,2.124,3.837,34.371,34.371,0,0,1-12.985,2.234,2.195,2.195,0,0,1-1.668-3.527Z" transform="translate(-317.05 -550.049)" fill="#5a6398"/>
      <path id="패스_34669" data-name="패스 34669" d="M371.562,547.489a2.144,2.144,0,0,1,1.645-1.063c5.357-.524,13.743-4.477,13.768-4.5a2.147,2.147,0,0,1,2.543,3.461c-.344.257-9.357,4.676-15.9,5.314a2.149,2.149,0,0,1-2.062-3.216Z" transform="translate(-296.223 -432.063)" fill="#91a7d5"/>
      <ellipse id="타원_19" data-name="타원 19" cx="4.374" cy="4.105" rx="4.374" ry="4.105" transform="matrix(0.182, -0.983, 0.983, 0.182, 83.772, 132.351)" fill="#91a7d5"/>
      <g id="그룹_97092" data-name="그룹 97092" transform="translate(46.204 93.126)" clip-path="url(#clip-path-2)">
        <ellipse id="타원_20" data-name="타원 20" cx="4.374" cy="4.105" rx="4.374" ry="4.105" transform="matrix(0.182, -0.983, 0.983, 0.182, 12.06, 36.556)" fill="#91a7d5"/>
      </g>
      <path id="패스_34671" data-name="패스 34671" d="M423.446,757.472a.505.505,0,0,1-.061-1.007l14.283-1.761a.506.506,0,1,1,.123,1l-14.283,1.761c-.02,0-.042,0-.063,0Z" transform="translate(-337.448 -602.146)" fill="#c7d5eb"/>
      <path id="패스_34672" data-name="패스 34672" d="M185.945,627.06a.505.505,0,0,1-.5-.459l-1.211-12.939a.505.505,0,1,1,1.007-.093l1.211,12.939a.5.5,0,0,1-.457.55l-.049,0Z" transform="translate(-146.99 -489.176)" fill="#c7d5eb"/>
      <path id="패스_34673" data-name="패스 34673" d="M310.226,345.093l1.793-.473c4.184,5.116,1.649,11.7-.623,15.66-.016.026-.03.053-.047.081a8.727,8.727,0,0,1-5.69,4.15h0c1.152-1.589,2.953-3.109,3.685-4.51,5.12-9.792.881-14.91.881-14.91Z" transform="translate(-243.875 -274.959)" fill="#d27a5e"/>
      <path id="패스_34674" data-name="패스 34674" d="M478.933,362.94s1.811,8.476-.693,20.376l.178-.253a16.3,16.3,0,0,0,2.775-6.824,32.179,32.179,0,0,0-.4-13.285l-1.858-.012Z" transform="translate(-381.569 -289.575)" fill="#d27a5e"/>
      <path id="패스_34675" data-name="패스 34675" d="M318.9,129.333a.512.512,0,0,1-.245-.063.505.505,0,0,1-.2-.687,19.091,19.091,0,0,1,6.685-7.115.505.505,0,0,1,.491.883h0a18.46,18.46,0,0,0-6.291,6.721A.5.5,0,0,1,318.9,129.333Z" transform="translate(-254.037 -96.864)" fill="#fff"/>
      <path id="패스_34676" data-name="패스 34676" d="M261.068,389.277a.49.49,0,0,1-.16-.026.508.508,0,0,1-.319-.641c.809-2.411,1.722-6.222,1.732-6.26a.5.5,0,1,1,.982.234c-.01.038-.934,3.891-1.757,6.345a.509.509,0,0,1-.479.346Z" transform="translate(-207.894 -304.752)" fill="#c7d5eb"/>
      <path id="패스_34677" data-name="패스 34677" d="M242.258,392.164a.5.5,0,0,1-.37-.847l2.868-3.111a.5.5,0,1,1,.742.685L242.63,392a.5.5,0,0,1-.372.164Z" transform="translate(-192.886 -309.604)" fill="#c7d5eb"/>
      <path id="패스_34678" data-name="패스 34678" d="M305.962,517.152a2.066,2.066,0,0,0-1.057-1.742c-5.157-3.125-11.4-10.74-11.413-10.768a2.721,2.721,0,0,0-3.323-1.075,2.036,2.036,0,0,0-1.294,2.81c.2.4,6.808,8.722,13.1,12.539a2.813,2.813,0,0,0,3.515-.507,1.936,1.936,0,0,0,.467-1.255Z" transform="translate(-230.318 -401.627)" fill="#91a7d5"/>
      <g id="그룹_97095" data-name="그룹 97095" transform="translate(67.251 19.235)">
        <path id="패스_34679" data-name="패스 34679" d="M383.155,147.243c-.006-.067-.012-.137-.02-.212a15.372,15.372,0,0,0-6.167-10.744,24.7,24.7,0,0,0-15-4.3l-.437-.156-.594.212a26.453,26.453,0,0,0-3.256.449c-10.511,2.116-13.857,8.106-14.34,9.088-1.049,2.007-1.666,5.284,3.659,7.394,8.011,3.176,31.762,2.741,31.762,2.741l.1.006v.17l.093-.073s5.431.358,4.207-4.572Z" transform="translate(-340.62 -124.417)" fill="#768192"/>
        <g id="그룹_97093" data-name="그룹 97093" transform="translate(11.879)">
          <path id="패스_34680" data-name="패스 34680" d="M503.66,131.18a.035.035,0,0,1,.008.006S503.666,131.184,503.66,131.18Z" transform="translate(-480.98 -123.898)" fill="#768192"/>
          <path id="패스_34681" data-name="패스 34681" d="M503.7,131.2Z" transform="translate(-481.012 -123.914)" fill="#768192"/>
          <path id="패스_34682" data-name="패스 34682" d="M414.192,102.52a.467.467,0,0,0-.024-.042l-.024-.042c-1.182-2-4.126-5.529-10.643-6.923a9.789,9.789,0,0,0-11.573,4.819.022.022,0,0,0,0,.008c-.121.174-2.171,3.317,3.455,2.63,5.789-.707,11.524-.008,12.949.707,4.639,2.327,5.89,2.454,5.925.085a11.346,11.346,0,0,0-.059-1.241Z" transform="translate(-391.462 -95.155)" fill="#768192"/>
        </g>
        <path id="패스_34683" data-name="패스 34683" d="M347.116,121.595s11.108-15.156,30.853-4.213c0,0,8.1,3.855,7.4,14.954,0,0-3.8-10.006-17.121-12.363s-22.743,7.049-22.743,7.049-.6-2.3,1.611-5.427Z" transform="translate(-342.854 -109.722)" fill="#9aa7b6"/>
        <path id="패스_34684" data-name="패스 34684" d="M372.062,176.547a10.933,10.933,0,0,1-.612-2.763c-.693-9.683-7.4-12.349-7.4-12.349-16.689-8.518-24.154,3.515-24.243,3.653a9.331,9.331,0,0,0-1.083,6.3c-3.988-.9-4.995,2.015-5.878,7.677s2.523,7.057,2.593,6.964c.036-.046.024.465.261,1.348a15.068,15.068,0,0,0,1.387,3.321c3.285,6.454,15.555,7.3,16.349,7.352,4.837.6,9.571,0,12.31-2.862,6.671-6.96,6.822-16.545,6.321-18.647Z" transform="translate(-332.697 -145.606)" fill="#99a6b4"/>
        <g id="그룹_97094" data-name="그룹 97094" transform="translate(11.196 20.302)">
          <path id="패스_34685" data-name="패스 34685" d="M434.354,237.5c-.038,1.336-.125,2.682-.1,4.021a4.263,4.263,0,0,0,1.142,3.168,3.027,3.027,0,0,0,3.038.669,3.321,3.321,0,0,0,2.036-2.527,13.965,13.965,0,0,0,.277-4.518c-.053-.566-.94-.57-.887,0a14.1,14.1,0,0,1-.1,3.55,3.246,3.246,0,0,1-1.259,2.494,2.119,2.119,0,0,1-2.414-.245,3.364,3.364,0,0,1-.944-2.638c-.02-1.324.063-2.654.1-3.976a.444.444,0,0,0-.887,0h0Z" transform="translate(-424.917 -228.683)" fill="#768192"/>
          <path id="패스_34686" data-name="패스 34686" d="M388.914,231.949a2.558,2.558,0,0,1,4.277.166c.3.485,1.067.04.766-.449a3.441,3.441,0,0,0-5.809-.168.444.444,0,1,0,.766.449h0Z" transform="translate(-388.084 -223.031)" fill="#768192"/>
          <path id="패스_34687" data-name="패스 34687" d="M481.314,244.159a2.558,2.558,0,0,1,4.277.166c.3.485,1.067.04.766-.449a3.441,3.441,0,0,0-5.81-.168.444.444,0,1,0,.766.449h0Z" transform="translate(-461.806 -232.773)" fill="#768192"/>
          <path id="패스_34688" data-name="패스 34688" d="M404.088,283.293a14.865,14.865,0,0,0,12.959,3.127,8.347,8.347,0,0,0,3.7-1.712c.427-.384-.2-1.011-.627-.629a7.186,7.186,0,0,1-3.028,1.413,13.333,13.333,0,0,1-3.172.429,14.134,14.134,0,0,1-6.157-1.3,13.286,13.286,0,0,1-3.05-1.955c-.433-.37-1.063.257-.627.629Z" transform="translate(-400.735 -264.973)" fill="#768192"/>
          <path id="패스_34689" data-name="패스 34689" d="M396.3,197.212a12.008,12.008,0,0,1,7.643-.184,13.755,13.755,0,0,1,4.039,2.236c.323.251.718.02,1.067-.077.388-.109.782-.2,1.178-.281a10.788,10.788,0,0,1,2.147-.2A9.366,9.366,0,0,1,417.3,200.2c.485.305.932-.465.449-.768a10.321,10.321,0,0,0-4.793-1.595,12.938,12.938,0,0,0-4.787.685l.433.115a14.351,14.351,0,0,0-5-2.638,12.011,12.011,0,0,0-4.888-.279,15,15,0,0,0-2.656.639c-.54.18-.309,1.039.237.859h0Z" transform="translate(-394.201 -195.589)" fill="#768192"/>
        </g>
      </g>
    </g>
  </g>
</svg>
