<svg xmlns="http://www.w3.org/2000/svg" xmlns:xlink="http://www.w3.org/1999/xlink" width="339" height="30" viewBox="0 0 339 30">
  <defs>
    <clipPath id="clip-path">
      <rect id="사각형_2" data-name="사각형 2" width="149.036" height="24.688" transform="translate(0 0)" fill="none"/>
    </clipPath>
    <clipPath id="clip-path-2">
      <rect id="사각형_4" data-name="사각형 4" width="157.882" height="24.446" transform="translate(0 0)" fill="none"/>
    </clipPath>
    <clipPath id="clip-path-3">
      <rect id="사각형_35270" data-name="사각형 35270" width="21.459" height="30" fill="none"/>
    </clipPath>
  </defs>
  <g id="logo" transform="translate(-283 556.114)">
    <g id="마스크_그룹_5" data-name="마스크 그룹 5" transform="translate(283 -553.458)" clip-path="url(#clip-path)">
      <path id="패스_1" data-name="패스 1" d="M0,52.624v2.595H10.729v6.607h6.353V55.219H27.81V52.624Z" transform="translate(0 -37.289)" fill="#fff"/>
      <path id="패스_2" data-name="패스 2" d="M12.69,8.234a1.3,1.3,0,0,1,.643-.627,2.372,2.372,0,0,1,1.043-.228h7.37v9.91h6.11V4.784H10.83a3.825,3.825,0,0,0-3.738,2.2L2.2,17.289H8.468Z" transform="translate(-1.562 -3.39)" fill="#fff"/>
      <path id="패스_3" data-name="패스 3" d="M109.732,29.554h8.85a4.734,4.734,0,0,0,3.482-1.21,4.734,4.734,0,0,0,1.209-3.482V23.62a4.736,4.736,0,0,0-1.209-3.482,4.736,4.736,0,0,0-3.482-1.209h-8.85a4.734,4.734,0,0,0-3.482,1.209,4.734,4.734,0,0,0-1.21,3.482v1.243a4.732,4.732,0,0,0,1.21,3.482,4.731,4.731,0,0,0,3.482,1.21m1.237-4.146V23.074a1.47,1.47,0,0,1,1.673-1.673H115.7a1.47,1.47,0,0,1,1.673,1.673v2.334A1.47,1.47,0,0,1,115.7,27.08h-3.061a1.47,1.47,0,0,1-1.673-1.673" transform="translate(-74.43 -13.412)" fill="#fff"/>
      <path id="패스_4" data-name="패스 4" d="M107.744,61.905h18.82v4.637h5.928V59.28H107.744Z" transform="translate(-76.346 -42.005)" fill="#fff"/>
      <path id="패스_5" data-name="패스 5" d="M123.554,3.79h-6.3V2.184h-5.565V3.79h-6.334V6.385h18.2Z" transform="translate(-74.651 -1.547)" fill="#fff"/>
      <path id="패스_6" data-name="패스 6" d="M178.551,3.744h-5.807V18.855h5.807V13.521H181.7V10.775h-3.152Z" transform="translate(-122.405 -2.653)" fill="#fff"/>
      <path id="패스_7" data-name="패스 7" d="M231.754,9.805h-2.527V9.042a5.353,5.353,0,0,0-1.361-3.937,5.352,5.352,0,0,0-3.937-1.361H215.9a5.352,5.352,0,0,0-3.937,1.361A5.353,5.353,0,0,0,210.6,9.042v12.85a5.354,5.354,0,0,0,1.361,3.937A5.353,5.353,0,0,0,215.9,27.19h8.031a5.353,5.353,0,0,0,3.937-1.361,5.354,5.354,0,0,0,1.361-3.937V20.249h2.527v6.94h5.807V3.744h-5.807Zm-2.527,3.049h2.527V17.2h-2.527ZM223.389,7.89V23.043a1.47,1.47,0,0,1-1.673,1.673h-3.576a1.47,1.47,0,0,1-1.673-1.673V7.89a1.47,1.47,0,0,1,1.673-1.673h3.576a1.47,1.47,0,0,1,1.673,1.673" transform="translate(-149.229 -2.653)" fill="#fff"/>
      <path id="패스_8" data-name="패스 8" d="M327.15,1.879h-4.516V0h-5.807V1.879h-4.516V4.5H327.15Z" transform="translate(-221.301 0)" fill="#fff"/>
      <path id="패스_9" data-name="패스 9" d="M339.6,55.711a5.523,5.523,0,0,0-3.7-1.111H317.619a5.521,5.521,0,0,0-3.7,1.111,4.8,4.8,0,0,0,0,6.554,5.519,5.519,0,0,0,3.7,1.111h18.275a5.521,5.521,0,0,0,3.7-1.111,4.8,4.8,0,0,0,0-6.554m-4.908,3.1v.364a1.47,1.47,0,0,1-1.673,1.673H320.468a1.47,1.47,0,0,1-1.673-1.673v-.364a1.47,1.47,0,0,1,1.673-1.673h12.547a1.47,1.47,0,0,1,1.673,1.673" transform="translate(-221.522 -38.689)" fill="#fff"/>
      <path id="패스_10" data-name="패스 10" d="M316.987,17.784a3.677,3.677,0,0,0-3.843,3.843v1.94a3.677,3.677,0,0,0,3.843,3.843h6.667a3.677,3.677,0,0,0,3.843-3.843v-1.94a3.677,3.677,0,0,0-3.843-3.843Zm5.249,3.873v1.879a1.357,1.357,0,0,1-1.4,1.4h-1a1.357,1.357,0,0,1-1.4-1.4V21.657a1.357,1.357,0,0,1,1.4-1.4h1a1.357,1.357,0,0,1,1.4,1.4" transform="translate(-221.891 -12.601)" fill="#fff"/>
      <path id="패스_11" data-name="패스 11" d="M371.965,12.46h1.588v5h5.413V3.744h-5.413v5.97h-1.588V3.744H366.7V17.461h5.262Z" transform="translate(-259.843 -2.653)" fill="#fff"/>
      <path id="패스_12" data-name="패스 12" d="M425.25,15.34h15.456a5.355,5.355,0,0,0,3.937-1.361A5.355,5.355,0,0,0,446,10.042v-1A5.355,5.355,0,0,0,444.643,5.1a5.355,5.355,0,0,0-3.937-1.361H425.25A5.354,5.354,0,0,0,421.313,5.1a5.354,5.354,0,0,0-1.361,3.937v1a5.354,5.354,0,0,0,1.361,3.937,5.354,5.354,0,0,0,3.937,1.361m.57-4.146V7.89a1.47,1.47,0,0,1,1.673-1.673h11a1.47,1.47,0,0,1,1.672,1.673v3.3a1.47,1.47,0,0,1-1.672,1.673h-11a1.47,1.47,0,0,1-1.673-1.673" transform="translate(-297.574 -2.653)" fill="#fff"/>
      <path id="패스_13" data-name="패스 13" d="M427.007,60.216H421.2v5.025a1.756,1.756,0,0,0,1.964,1.964h23.179V64.61H427.007Z" transform="translate(-298.458 -42.668)" fill="#fff"/>
      <rect id="사각형_1" data-name="사각형 1" width="27.81" height="2.595" transform="translate(121.226 13.699)" fill="#fff"/>
    </g>
    <g id="마스크_그룹_4" data-name="마스크 그룹 4" transform="translate(464.119 -553.458)" clip-path="url(#clip-path-2)">
      <path id="패스_14" data-name="패스 14" d="M0,49.193v2.625H10.941V58.3h5.928V51.818H27.81V49.193Z" transform="translate(0 -34.275)" fill="#f9e849"/>
      <path id="패스_15" data-name="패스 15" d="M8.608,13.172H22.731a6.532,6.532,0,0,0,4.538-1.507,5.657,5.657,0,0,0,1.669-4.4V5.9a5.974,5.974,0,0,0-1.513-4.391A5.974,5.974,0,0,0,23.034,0H8.608A5.971,5.971,0,0,0,4.217,1.513,5.973,5.973,0,0,0,2.7,5.9V7.268a5.971,5.971,0,0,0,1.513,4.391,5.972,5.972,0,0,0,4.391,1.512m.024-6.055V6.055a3.528,3.528,0,0,1,.9-2.594,3.528,3.528,0,0,1,2.594-.9h7.395a3.53,3.53,0,0,1,2.594.9,3.529,3.529,0,0,1,.9,2.594V7.116a3.528,3.528,0,0,1-.9,2.594,3.527,3.527,0,0,1-2.594.9H12.124a3.525,3.525,0,0,1-2.594-.9,3.527,3.527,0,0,1-.9-2.594" transform="translate(-1.916 0.583)" fill="#f9e849"/>
      <path id="패스_16" data-name="패스 16" d="M99.736,51.475h10.729v6.607h6.353V51.475h10.729V48.88H99.736Z" transform="translate(-70.672 -34.053)" fill="#f9e849"/>
      <path id="패스_17" data-name="패스 17" d="M109.682,13.523l3.463-7.906a2.516,2.516,0,0,1,2.5-1.64h5.522v9.547h6.11V3.976h2.3V1.351h-25.87V3.976h3.863l-4.152,9.547Z" transform="translate(-73.285 -0.375)" fill="#f9e849"/>
      <path id="패스_18" data-name="패스 18" d="M221.165,6.508H202.133V12.32a3.065,3.065,0,0,0,.736,2.176,2.8,2.8,0,0,0,2.137.789h22.179V12.63H207.94V9.011h19.033V.416h-24.9V3.011h19.093Z" transform="translate(-143.186 0.288)" fill="#f9e849"/>
      <path id="패스_19" data-name="패스 19" d="M215.049,59.723V55.328h-5.868v4.394H198.12v2.594h27.992V59.723Z" transform="translate(-140.386 -38.622)" fill="#f9e849"/>
      <path id="패스_20" data-name="패스 20" d="M15.36,4.368H0V6.811H11.516V27.3h6.11V6.635A2.009,2.009,0,0,0,15.36,4.368" transform="translate(90.337 -3.095)" fill="#f9e849"/>
      <path id="패스_21" data-name="패스 21" d="M75.279,3.328H69.472V26.774h5.807V15.227h3.212V12.481H75.279Z" transform="translate(41.11 -2.358)" fill="#f9e849"/>
      <path id="패스_22" data-name="패스 22" d="M179.071,3.328h-5.807V26.774h5.807V15.8h3.394V13.057h-3.394Z" transform="translate(-32.436 -2.358)" fill="#f9e849"/>
      <path id="패스_23" data-name="패스 23" d="M104.356,6.964h2.434l-3.4,20.305h5.782l3.171-19.636a.777.777,0,0,1,.887-.67h1.642V27.269h5.807V6.964h1.879V4.369h-18.2Z" transform="translate(17.076 -3.096)" fill="#f9e849"/>
      <path id="패스_24" data-name="패스 24" d="M214.372,18.294h2.7a.676.676,0,0,0,.752-.746l.636-16.422a1,1,0,0,0-.285-.81,1.088,1.088,0,0,0-.8-.316h-3.3a1.089,1.089,0,0,0-.8.316.993.993,0,0,0-.285.808l.636,16.418a.678.678,0,0,0,.752.752" transform="translate(-60.579 0)" fill="#f9e849"/>
      <path id="패스_25" data-name="패스 25" d="M217.931,67.912h-3.667a.678.678,0,0,0-.752.752v3.152a.678.678,0,0,0,.752.752h3.667a.678.678,0,0,0,.752-.752V68.664a.678.678,0,0,0-.752-.752" transform="translate(-60.956 -48.122)" fill="#f9e849"/>
    </g>
    <g id="그룹_96882" data-name="그룹 96882" transform="translate(437.671 -556.114)">
      <g id="그룹_96881" data-name="그룹 96881" clip-path="url(#clip-path-3)">
        <path id="패스_32175" data-name="패스 32175" d="M40.949,76.753a3.368,3.368,0,0,1,3.645.921,4.835,4.835,0,0,1,.964,2.064s.092.206.02.271c-.094.085-.412-.015-1-.557.211.193.251.946.285,1.2a6.872,6.872,0,0,1-.116,2.119,11.64,11.64,0,0,1-.206,1.19c-.036.144-.013.2-.112.288a6.639,6.639,0,0,1-1.343-.741,4.858,4.858,0,0,0-1.257-.682c.227.256.684,1.261.529,1.219a5.017,5.017,0,0,1-2.007-.779A4.091,4.091,0,0,1,38.415,80.7,3.26,3.26,0,0,1,39.6,77.469a4.526,4.526,0,0,1,1.351-.716" transform="translate(-27.17 -54.252)" fill="#e96449"/>
        <path id="패스_32176" data-name="패스 32176" d="M42.511,77.777a1.465,1.465,0,0,1,1.192,0,2.166,2.166,0,0,1,1.311,1.3,4.888,4.888,0,0,1,.284,1.7,2.823,2.823,0,0,1-.113.873c-.123.029-.261-.232-.322-.309a3.158,3.158,0,0,0-.593-.627c-.05-.036-.668-.377-.688-.279a1.508,1.508,0,0,0,.1.772c.045.138.182.462.11.618-.064.14-.879-.37-.961-.419a3.069,3.069,0,0,1-1.406-2.348c.009-.608.423-.9.93-1.208a1.679,1.679,0,0,1,.153-.082" transform="translate(-29.355 -55.023)" fill="#e23c32"/>
        <path id="패스_32177" data-name="패스 32177" d="M8.4,1.906,4.678.148a1.541,1.541,0,0,0-2.162,1.06L1.629,5.221C3.484,4.329,5.9,3.156,8.4,1.906" transform="translate(-1.154 0)" fill="#e56b90"/>
        <path id="패스_32178" data-name="패스 32178" d="M8.29,7.033,7.249,6.542C4.746,7.792,2.33,8.965.475,9.856L.225,10.989A9.264,9.264,0,0,0,2.21,19.083L9.5,27.877l6.46-3.169-2.489-11.15a9.491,9.491,0,0,0-.83-2.348A9.493,9.493,0,0,0,8.29,7.033" transform="translate(0 -4.636)" fill="#fff"/>
        <path id="패스_32179" data-name="패스 32179" d="M17.39,21.671a3.591,3.591,0,1,1-4.14-1.415,3.593,3.593,0,0,1,4.14,1.415" transform="translate(-7.658 -14.219)" fill="#e04670"/>
        <path id="패스_32180" data-name="패스 32180" d="M18.986,24.672a2.557,2.557,0,1,1-2.793-.955,2.559,2.559,0,0,1,2.793.955" transform="translate(-10.174 -16.731)" fill="#59bedf"/>
        <path id="패스_32181" data-name="패스 32181" d="M11.52,59.816l-1.468,2.925a3.8,3.8,0,0,0,.646,4.328l3.979,4.175a1.187,1.187,0,0,0,2.043-.915l-.381-4.7Z" transform="translate(-6.836 -42.385)" fill="#e56b90"/>
        <path id="패스_32182" data-name="패스 32182" d="M49.194,43.571l3.212.629a3.8,3.8,0,0,1,3.027,3.16l.869,5.731a1.177,1.177,0,0,1-1.957,1.046l-3.507-3.2Z" transform="translate(-34.858 -30.874)" fill="#e56b90"/>
        <path id="패스_32183" data-name="패스 32183" d="M32.609,72.027l.528,1.309a.873.873,0,0,0,1.195.457l5.092-2.5a.9.9,0,0,0,.374-1.281l-.711-1.165Z" transform="translate(-23.106 -48.786)" fill="#e04670"/>
      </g>
    </g>
  </g>
</svg>
