<svg id="btn_img" xmlns="http://www.w3.org/2000/svg" xmlns:xlink="http://www.w3.org/1999/xlink" width="108" height="48" viewBox="0 0 108 48">
  <defs>
    <clipPath id="clip-path">
      <rect id="사각형_35335" data-name="사각형 35335" width="108" height="48" fill="none"/>
    </clipPath>
  </defs>
  <g id="그룹_97125" data-name="그룹 97125" clip-path="url(#clip-path)">
    <g id="그룹_97124" data-name="그룹 97124">
      <ellipse id="타원_22" data-name="타원 22" cx="54" cy="17.794" rx="54" ry="17.794" transform="translate(0 12.411)" fill="#15b192"/>
      <path id="패스_34716" data-name="패스 34716" d="M54,28.873c-25.491,0-46.851-5.829-52.509-13.663A7.063,7.063,0,0,0,0,19.341c0,9.84,24.171,17.794,54,17.794s54-7.971,54-17.794a7,7,0,0,0-1.474-4.131C100.869,23.044,79.509,28.873,54,28.873Z" transform="translate(0 10.864)" fill="#008e92"/>
      <path id="패스_34717" data-name="패스 34717" d="M13.3,10.531a4.431,4.431,0,0,0-.069.651c0,5.726,14.023,11.366,31.32,11.366s31.32-5.64,31.32-11.366a2.9,2.9,0,0,0-.069-.651A139.324,139.324,0,0,0,44.55,7.24,139.436,139.436,0,0,0,13.3,10.531Z" transform="translate(9.45 5.171)" fill="#e95442"/>
      <path id="패스_34718" data-name="패스 34718" d="M70.26,15.857c0,5.006-12.257,9.051-27.36,9.051s-27.36-4.063-27.36-9.051S27.8,0,42.9,0,70.26,10.851,70.26,15.857Z" transform="translate(11.1)" fill="#fff"/>
      <path id="패스_34719" data-name="패스 34719" d="M42.9,2.794c13.766,0,25.149,9,27.069,14.383a3.277,3.277,0,0,0,.291-1.32C70.26,10.851,58,0,42.9,0S15.54,10.851,15.54,15.857a3.278,3.278,0,0,0,.291,1.32C17.769,11.794,29.134,2.794,42.9,2.794Z" transform="translate(11.1)" fill="#e6e6e6"/>
      <g id="그룹_97123" data-name="그룹 97123" transform="translate(3.033 30.103)">
        <g id="그룹_97112" data-name="그룹 97112" transform="translate(0 1.234)">
          <path id="패스_34720" data-name="패스 34720" d="M4.934,20.114A1.315,1.315,0,0,1,3.563,21.4a1.321,1.321,0,1,1,1.371-1.286Z" transform="translate(-1.419 -17.937)" fill="#fff"/>
          <path id="패스_34721" data-name="패스 34721" d="M3.948,22.583H3.9A2.166,2.166,0,0,1,1.77,20.371a2.178,2.178,0,0,1,4.354.12,2.152,2.152,0,0,1-2.177,2.091Zm.017-2.64a.485.485,0,0,0-.36.823.432.432,0,0,0,.343.154v0a.491.491,0,0,0,.5-.463.509.509,0,0,0-.48-.514h0Z" transform="translate(-1.769 -18.28)" fill="#fff28a"/>
        </g>
        <g id="그룹_97113" data-name="그룹 97113" transform="translate(8.709 5.194)">
          <path id="패스_34722" data-name="패스 34722" d="M10.014,22.434A1.337,1.337,0,0,1,8.643,23.72a1.314,1.314,0,0,1-1.3-1.354,1.338,1.338,0,0,1,2.674.069Z" transform="translate(-6.499 -20.24)" fill="#fff"/>
          <path id="패스_34723" data-name="패스 34723" d="M9.045,24.893H8.976a2.159,2.159,0,0,1-1.526-.669,2.134,2.134,0,0,1-.6-1.543A2.187,2.187,0,0,1,9.028,20.59a2.158,2.158,0,0,1,1.577.669,2.134,2.134,0,0,1,.6,1.543,2.183,2.183,0,0,1-2.16,2.091Zm0-2.64a.48.48,0,0,0-.5.463.553.553,0,0,0,.137.36.578.578,0,0,0,.343.154v.84l.017-.84a.485.485,0,0,0,.343-.823.432.432,0,0,0-.343-.154h0Z" transform="translate(-6.849 -20.59)" fill="#fff28a"/>
        </g>
        <g id="그룹_97114" data-name="그룹 97114" transform="translate(18.737 8.109)">
          <path id="패스_34724" data-name="패스 34724" d="M15.854,24.124a1.338,1.338,0,1,1-1.3-1.354A1.325,1.325,0,0,1,15.854,24.124Z" transform="translate(-12.356 -21.947)" fill="#fff"/>
          <path id="패스_34725" data-name="패스 34725" d="M14.878,26.593h-.051A2.166,2.166,0,0,1,12.7,24.381a2.178,2.178,0,1,1,2.177,2.211Zm0-2.64a.485.485,0,0,0-.36.823.432.432,0,0,0,.343.154v0a.469.469,0,0,0,.48-.48.479.479,0,0,0-.137-.343.432.432,0,0,0-.343-.154h0Z" transform="translate(-12.699 -22.29)" fill="#fff28a"/>
        </g>
        <g id="그룹_97115" data-name="그룹 97115" transform="translate(29.109 9.703)">
          <path id="패스_34726" data-name="패스 34726" d="M21.914,25.054a1.338,1.338,0,1,1-1.3-1.354A1.325,1.325,0,0,1,21.914,25.054Z" transform="translate(-18.399 -22.877)" fill="#fff"/>
          <path id="패스_34727" data-name="패스 34727" d="M20.928,27.523h-.069a2.152,2.152,0,0,1,.069-4.3A2.187,2.187,0,0,1,23.1,25.431a2.141,2.141,0,0,1-2.177,2.091Zm.017-2.64a.483.483,0,0,0-.5.48.418.418,0,0,0,.137.343.578.578,0,0,0,.343.154v.84l.017-.84a.476.476,0,0,0,.48-.463.483.483,0,0,0-.48-.5h0Z" transform="translate(-18.749 -23.22)" fill="#fff28a"/>
        </g>
        <g id="그룹_97116" data-name="그룹 97116" transform="translate(39.274 10.851)">
          <path id="패스_34728" data-name="패스 34728" d="M27.834,25.744a1.338,1.338,0,1,1-1.3-1.354A1.325,1.325,0,0,1,27.834,25.744Z" transform="translate(-24.336 -23.533)" fill="#fff"/>
          <path id="패스_34729" data-name="패스 34729" d="M26.858,28.21h-.069A2.166,2.166,0,0,1,24.68,26a2.183,2.183,0,0,1,3.754-1.44,2.146,2.146,0,0,1-1.577,3.634Zm0-2.64a.485.485,0,0,0-.36.823.578.578,0,0,0,.343.154v.84l.017-.84a.479.479,0,0,0,.48-.48.51.51,0,0,0-.137-.343.432.432,0,0,0-.343-.154Z" transform="translate(-24.679 -23.89)" fill="#fff28a"/>
        </g>
        <g id="그룹_97117" data-name="그룹 97117" transform="translate(49.749 11.126)">
          <path id="패스_34730" data-name="패스 34730" d="M33.954,25.9a1.338,1.338,0,1,1-1.3-1.354A1.325,1.325,0,0,1,33.954,25.9Z" transform="translate(-30.439 -23.693)" fill="#fff"/>
          <path id="패스_34731" data-name="패스 34731" d="M32.968,28.37H32.9a2.166,2.166,0,0,1-2.109-2.211,2.183,2.183,0,0,1,3.754-1.44,2.146,2.146,0,0,1-1.577,3.634Zm.017-2.64a.5.5,0,0,0-.514.48.51.51,0,0,0,.137.343.578.578,0,0,0,.343.154v.84l.017-.84a.485.485,0,0,0,.343-.823.578.578,0,0,0-.343-.154h0Z" transform="translate(-30.789 -24.05)" fill="#fff28a"/>
        </g>
        <g id="그룹_97118" data-name="그룹 97118" transform="translate(59.931 11.006)">
          <path id="패스_34732" data-name="패스 34732" d="M39.884,25.814a1.338,1.338,0,1,1-1.3-1.354A1.325,1.325,0,0,1,39.884,25.814Z" transform="translate(-36.386 -23.637)" fill="#fff"/>
          <path id="패스_34733" data-name="패스 34733" d="M38.908,28.283h-.069a2.12,2.12,0,0,1-1.509-.669,2.066,2.066,0,0,1-.6-1.543,2.178,2.178,0,1,1,2.177,2.211Zm0-2.64a.486.486,0,0,0-.377.823.578.578,0,0,0,.343.154v.84l.017-.84a.473.473,0,0,0,.343-.806.432.432,0,0,0-.343-.154h0Z" transform="translate(-36.729 -23.98)" fill="#fff28a"/>
        </g>
        <g id="그룹_97119" data-name="그룹 97119" transform="translate(70.201 10.337)">
          <path id="패스_34734" data-name="패스 34734" d="M45.874,25.444a1.338,1.338,0,1,1-1.3-1.354A1.337,1.337,0,0,1,45.874,25.444Z" transform="translate(-42.377 -23.233)" fill="#fff"/>
          <path id="패스_34735" data-name="패스 34735" d="M44.9,27.91h-.051a2.16,2.16,0,0,1,.051-4.32,2.158,2.158,0,0,1,1.577.669A2.146,2.146,0,0,1,44.9,27.893Zm0-2.64a.489.489,0,0,0-.017.977v0a.505.505,0,0,0,.5-.48.479.479,0,0,0-.137-.343.432.432,0,0,0-.343-.154h0Z" transform="translate(-42.72 -23.59)" fill="#fff28a"/>
        </g>
        <g id="그룹_97120" data-name="그룹 97120" transform="translate(80.417 8.4)">
          <path id="패스_34736" data-name="패스 34736" d="M51.844,24.294a1.338,1.338,0,1,1-1.3-1.354A1.325,1.325,0,0,1,51.844,24.294Z" transform="translate(-48.329 -22.117)" fill="#fff"/>
          <path id="패스_34737" data-name="패스 34737" d="M50.858,26.763h-.051a2.159,2.159,0,0,1-1.526-.669,2.146,2.146,0,0,1,1.577-3.634,2.16,2.16,0,1,1,0,4.32Zm.017-2.64a.485.485,0,0,0-.36.823.432.432,0,0,0,.343.154v.84l.017-.84a.494.494,0,0,0,.5-.48.505.505,0,0,0-.48-.5h0Z" transform="translate(-48.679 -22.46)" fill="#fff28a"/>
        </g>
        <g id="그룹_97121" data-name="그룹 97121" transform="translate(90.669 5.297)">
          <path id="패스_34738" data-name="패스 34738" d="M57.824,22.494a1.338,1.338,0,1,1-1.3-1.354A1.325,1.325,0,0,1,57.824,22.494Z" transform="translate(-54.31 -20.3)" fill="#fff"/>
          <path id="패스_34739" data-name="패스 34739" d="M56.837,24.97h-.051a2.2,2.2,0,1,1,.051,0Zm.017-2.64a.489.489,0,1,0-.017.977v0a.483.483,0,0,0,.5-.48.494.494,0,0,0-.48-.5Z" transform="translate(-54.66 -20.65)" fill="#fff28a"/>
        </g>
        <g id="그룹_97122" data-name="그룹 97122" transform="translate(98.829)">
          <path id="패스_34740" data-name="패스 34740" d="M62.584,19.394a1.338,1.338,0,1,1-1.3-1.354A1.325,1.325,0,0,1,62.584,19.394Z" transform="translate(-59.069 -17.217)" fill="#fff"/>
          <path id="패스_34741" data-name="패스 34741" d="M61.6,21.863h-.051a2.166,2.166,0,0,1-2.126-2.211,2.184,2.184,0,0,1,3.754-1.423A2.146,2.146,0,0,1,61.6,21.863Zm.017-2.64a.48.48,0,0,0-.5.463.553.553,0,0,0,.137.36.432.432,0,0,0,.343.154v0a.483.483,0,0,0,.5-.48.418.418,0,0,0-.137-.343.457.457,0,0,0-.343-.154h0Z" transform="translate(-59.419 -17.56)" fill="#fff28a"/>
        </g>
      </g>
    </g>
  </g>
</svg>
