<svg xmlns="http://www.w3.org/2000/svg" xmlns:xlink="http://www.w3.org/1999/xlink" width="28" height="28" viewBox="0 0 28 28">
  <defs>
    <clipPath id="clip-path">
      <rect id="사각형_35326" data-name="사각형 35326" width="28" height="28" transform="translate(1338 907)" fill="#fff" stroke="#707070" stroke-width="1"/>
    </clipPath>
  </defs>
  <g id="ic_arrow" transform="translate(-1338 -907)" clip-path="url(#clip-path)">
    <path id="패스_34295" data-name="패스 34295" d="M181.449,10.239a2.662,2.662,0,0,1-.54.738q-3.865,4.3-7.724,8.6a1.243,1.243,0,0,1-1,.445c-1.7-.009-3.4,0-5.1,0a.93.93,0,0,1-1.044-.968,1.078,1.078,0,0,1,.334-.673q3.607-4.013,7.212-8.027c.293-.326.293-.328,0-.653q-3.614-4.024-7.228-8.049A.917.917,0,0,1,166.39.232a1.026,1.026,0,0,1,.671-.2q2.616,0,5.231,0a1.047,1.047,0,0,1,.82.365q4.021,4.481,8.047,8.957a2.491,2.491,0,0,1,.29.462Z" transform="translate(1183.748 910.973)" fill="#fff"/>
    <path id="패스_34296" data-name="패스 34296" d="M3.643,0c.85,0,1.7.005,2.55,0a1.164,1.164,0,0,1,.93.42q3.965,4.426,7.94,8.843a.951.951,0,0,1,0,1.474q-3.972,4.42-7.94,8.843A1.172,1.172,0,0,1,6.192,20c-1.709-.005-3.418,0-5.127,0a.931.931,0,0,1-.756-1.61l4.282-4.767C5.616,12.478,6.638,11.334,7.67,10.2c.144-.158.142-.246,0-.4Q3.992,5.719.327,1.631A.919.919,0,0,1,.365.193,1.11,1.11,0,0,1,1.067,0H3.643" transform="translate(1338 911.001)" fill="#fff"/>
  </g>
</svg>
