<svg xmlns="http://www.w3.org/2000/svg" xmlns:xlink="http://www.w3.org/1999/xlink" width="24" height="24" viewBox="0 0 24 24">
  <defs>
    <clipPath id="clip-path">
      <rect id="사각형_35324" data-name="사각형 35324" width="24" height="24" transform="translate(-3 -1)" fill="#fff" stroke="#707070" stroke-width="1"/>
    </clipPath>
  </defs>
  <g id="ic_undo" transform="translate(3 1)" clip-path="url(#clip-path)">
    <path id="패스_34294" data-name="패스 34294" d="M3.3,5.235a.434.434,0,0,0,.252.029c.912,0,1.825-.006,2.737,0A1.033,1.033,0,0,1,7.334,6.634a.955.955,0,0,1-.937.734c-1.808.009-3.617.012-5.425,0C.366,7.362,0,6.915,0,6.237Q0,3.7,0,1.156c0-.033,0-.066,0-.1A1.042,1.042,0,0,1,1.447.071a.966.966,0,0,1,.66.967c.006.8,0,1.593,0,2.432a12.087,12.087,0,0,1,1.08-.848A9.322,9.322,0,0,1,16.72,6.064a9.5,9.5,0,0,1-3.544,12.571,9.34,9.34,0,0,1-11.6-1.549A9.941,9.941,0,0,1,.451,15.721a1.052,1.052,0,0,1,0-1.244,1.157,1.157,0,0,1,1.214-.392,1.1,1.1,0,0,1,.576.475A7.126,7.126,0,0,0,5.493,17.25a7.317,7.317,0,0,0,10.077-5.2,7.29,7.29,0,0,0-5.5-8.76,7.068,7.068,0,0,0-6.7,1.871c-.022.02-.039.043-.064.071" transform="translate(0 1)"/>
  </g>
</svg>
