<svg xmlns="http://www.w3.org/2000/svg" xmlns:xlink="http://www.w3.org/1999/xlink" width="100" height="100" viewBox="0 0 100 100">
  <defs>
    <clipPath id="clip-path">
      <rect id="사각형_35336" data-name="사각형 35336" width="76" height="76" fill="none"/>
    </clipPath>
  </defs>
  <g id="profile1" transform="translate(-1175 -817)">
    <circle id="타원_5" data-name="타원 5" cx="50" cy="50" r="50" transform="translate(1175 817)" fill="#d1c5ff"/>
    <g id="Layer_1" transform="translate(1187 829)">
      <g id="그룹_97131" data-name="그룹 97131" clip-path="url(#clip-path)">
        <g id="그룹_97130" data-name="그룹 97130" transform="translate(-15.742 -15.741)">
          <g id="그룹_97126" data-name="그룹 97126" transform="translate(0 0)">
            <circle id="타원_23" data-name="타원 23" cx="38.002" cy="38.002" r="38.002" transform="translate(0 53.743) rotate(-45)" fill="#fff" opacity="0.4"/>
            <path id="패스_34742" data-name="패스 34742" d="M13.712,62.033a.719.719,0,0,1-.2-.03.668.668,0,0,1-.432-.841A33.772,33.772,0,0,1,19.9,49.247a.67.67,0,0,1,.972.922,33.09,33.09,0,0,0-6.525,11.4.667.667,0,0,1-.637.466Z" transform="translate(7.07 -16.863)" fill="#fff"/>
          </g>
          <g id="그룹_97129" data-name="그룹 97129" transform="translate(26.757 24.448)">
            <path id="패스_34743" data-name="패스 34743" d="M85.659,67.785c-.023-.084-.05-.171-.077-.265A19.881,19.881,0,0,0,75.1,55.378a32.113,32.113,0,0,0-20.172-1.8l-.593-.09-.707.416a34,34,0,0,0-4.042,1.367C36.7,60.533,33.9,68.965,33.528,70.329c-.848,2.805-.834,7.122,6.465,8.5,10.983,2.075,41.149-4.286,41.149-4.286l.131-.017.04.214.1-.117s7.008-.871,4.246-6.84Z" transform="translate(-33.058 -43.778)" fill="#768192"/>
            <g id="그룹_97127" data-name="그룹 97127" transform="translate(9.516 0)">
              <path id="패스_34744" data-name="패스 34744" d="M148.18,44.49a.012.012,0,0,1,.01.007S148.187,44.5,148.18,44.49Z" transform="translate(-119.05 -38.286)" fill="#768192"/>
              <path id="패스_34745" data-name="패스 34745" d="M148.22,44.51Z" transform="translate(-119.077 -38.299)" fill="#768192"/>
              <path id="패스_34746" data-name="패스 34746" d="M90.476,32.276l-.04-.047c-.013-.017-.027-.03-.04-.047-1.994-2.249-6.606-6.016-15.252-6.193-1.1-.02-5.888-.238-9.555,2.879a14.276,14.276,0,0,0-4.022,6.076l0,.013c-.111.251-1.957,4.746,5.044,2.5,7.206-2.312,14.686-2.829,16.677-2.269,6.478,1.82,8.1,1.679,7.571-1.341a15.808,15.808,0,0,0-.375-1.562Z" transform="translate(-61.263 -25.979)" fill="#768192"/>
            </g>
            <path id="패스_34747" data-name="패스 34747" d="M34.022,54.065s10.46-21.975,38.3-12.9c0,0,11.261,2.916,13.077,17.193,0,0-7.279-11.787-24.837-11.522S33.292,61.357,33.292,61.357s-1.331-2.775.731-7.289Z" transform="translate(-32.869 -34.616)" fill="#9aa7b6"/>
            <path id="패스_34748" data-name="패스 34748" d="M85.625,93.354a14.23,14.23,0,0,1-1.455-3.361C80.927,77.857,71.724,76.111,71.724,76.111,48.378,69.368,41.8,86.483,41.715,86.678c-1.646,3.921.158,8.275.158,8.275-5.3-.168-5.875,3.784-5.62,11.19s4.933,8.348,5,8.214c.034-.067.144.586.66,1.649a19.386,19.386,0,0,0,2.577,3.881c5.761,7.4,21.607,5.476,22.629,5.346,5.057-.868,12.2-2.346,14.991-6.646,6.8-10.477,4.662-22.692,3.512-25.239Z" transform="translate(-35.086 -58.264)" fill="#99a6b4"/>
            <g id="그룹_97128" data-name="그룹 97128" transform="translate(14.15 26.63)">
              <path id="패스_34749" data-name="패스 34749" d="M111.089,135.525c.278,1.709.5,3.439.851,5.134a5.5,5.5,0,0,0,2.229,3.747,3.943,3.943,0,0,0,4.035.107,4.309,4.309,0,0,0,1.981-3.71,18.034,18.034,0,0,0-.747-5.808c-.2-.707-1.337-.5-1.129.218a18.257,18.257,0,0,1,.734,4.534c.034,1.217,0,2.624-1,3.479a2.748,2.748,0,0,1-3.134.278,4.329,4.329,0,0,1-1.847-3.12c-.349-1.676-.566-3.385-.841-5.077-.117-.731-1.25-.513-1.129.218h0Z" transform="translate(-99.021 -124.8)" fill="#768192"/>
              <path id="패스_34750" data-name="패스 34750" d="M76.216,138a3.327,3.327,0,0,1,5.493-.834c.5.543,1.371-.211.868-.757a4.475,4.475,0,0,0-7.447,1.207.579.579,0,0,0,.352.734.588.588,0,0,0,.734-.352h0Z" transform="translate(-75.09 -125.038)" fill="#768192"/>
              <path id="패스_34751" data-name="패스 34751" d="M149.046,133.729a3.327,3.327,0,0,1,5.493-.834c.5.543,1.371-.211.868-.757a4.475,4.475,0,0,0-7.447,1.207.579.579,0,0,0,.352.734.588.588,0,0,0,.734-.352h0Z" transform="translate(-123.512 -122.199)" fill="#768192"/>
              <path id="패스_34752" data-name="패스 34752" d="M94.354,171.653a19.338,19.338,0,0,0,17.28.8,10.844,10.844,0,0,0,4.3-3.08c.449-.59-.506-1.233-.952-.647a9.287,9.287,0,0,1-3.516,2.534,17.564,17.564,0,0,1-3.938,1.32,18.394,18.394,0,0,1-8.164-.147A17.3,17.3,0,0,1,95,170.7c-.64-.365-1.29.587-.647.952Z" transform="translate(-87.722 -147.365)" fill="#768192"/>
              <path id="패스_34753" data-name="패스 34753" d="M76.351,108.817a15.642,15.642,0,0,1,9.7-2.1,17.8,17.8,0,0,1,5.694,1.853c.473.238.918-.147,1.341-.359q.7-.352,1.434-.643a14.12,14.12,0,0,1,2.688-.784,12.169,12.169,0,0,1,6.653.694c.694.268,1.072-.818.382-1.086a13.394,13.394,0,0,0-6.5-.855,16.875,16.875,0,0,0-5.932,2.041l.576.04a18.635,18.635,0,0,0-7.021-2.128,15.706,15.706,0,0,0-6.3.838,20,20,0,0,0-3.231,1.461c-.643.359-.141,1.394.509,1.032h0Z" transform="translate(-75.389 -105.438)" fill="#768192"/>
            </g>
          </g>
        </g>
      </g>
    </g>
  </g>
</svg>
