<svg xmlns="http://www.w3.org/2000/svg" xmlns:xlink="http://www.w3.org/1999/xlink" width="100" height="100" viewBox="0 0 100 100">
  <defs>
    <clipPath id="clip-path">
      <rect id="사각형_35339" data-name="사각형 35339" width="72" height="72" fill="none"/>
    </clipPath>
  </defs>
  <g id="profile2" transform="translate(-1036 -505)">
    <circle id="타원_1" data-name="타원 1" cx="50" cy="50" r="50" transform="translate(1036 505)" fill="#b5c3e0"/>
    <g id="Layer_1" transform="translate(1050 519)">
      <g id="그룹_97134" data-name="그룹 97134" clip-path="url(#clip-path)">
        <g id="그룹_97133" data-name="그룹 97133" transform="translate(0 2.4)">
          <path id="패스_34754" data-name="패스 34754" d="M67.592,34.6A33.418,33.418,0,0,1,34.376,68.2,33.418,33.418,0,0,1,1.16,34.6,33.4,33.4,0,0,1,34.376,1,33.4,33.4,0,0,1,67.592,34.6Z" transform="translate(1.624 -1)" fill="#fff"/>
          <rect id="사각형_35337" data-name="사각형 35337" width="2.568" height="8.472" transform="translate(67.896 18.264)" fill="#fff"/>
          <path id="패스_34755" data-name="패스 34755" d="M33.3,29.462a2.842,2.842,0,0,1-2.832,2.856h0a2.842,2.842,0,0,1-2.832-2.856V12.806A2.842,2.842,0,0,1,30.472,9.95h0A2.842,2.842,0,0,1,33.3,12.806Z" transform="translate(38.696 11.53)" fill="#d1d1d0"/>
          <path id="패스_34756" data-name="패스 34756" d="M33.152,9.41a2.736,2.736,0,1,1-2.736-2.76,2.755,2.755,0,0,1,2.736,2.76Z" transform="translate(38.752 6.91)" fill="#de5d40"/>
          <rect id="사각형_35338" data-name="사각형 35338" width="2.568" height="8.472" transform="translate(1.56 18.264)" fill="#fff"/>
          <path id="패스_34757" data-name="패스 34757" d="M0,29.462a2.842,2.842,0,0,0,2.832,2.856h0a2.842,2.842,0,0,0,2.832-2.856V12.806A2.842,2.842,0,0,0,2.832,9.95h0A2.842,2.842,0,0,0,0,12.806Z" transform="translate(0 11.53)" fill="#d1d1d0"/>
          <path id="패스_34758" data-name="패스 34758" d="M.04,9.41a2.755,2.755,0,0,0,2.736,2.76A2.76,2.76,0,1,0,.04,9.41Z" transform="translate(0.056 6.91)" fill="#de5d40"/>
          <g id="그룹_97132" data-name="그룹 97132" transform="translate(9.6 10.44)">
            <path id="패스_34759" data-name="패스 34759" d="M56.8,32.062a26.4,26.4,0,1,1-52.8,0A26.576,26.576,0,0,1,30.4,5.35,26.555,26.555,0,0,1,56.8,32.038Z" transform="translate(-4 -5.35)" fill="#d1d1d0"/>
            <path id="패스_34760" data-name="패스 34760" d="M51.4,30.046A22.993,22.993,0,1,1,28.412,6.79,23.129,23.129,0,0,1,51.4,30.046Z" transform="translate(-2.012 -3.334)" fill="#385b7d"/>
            <path id="패스_34761" data-name="패스 34761" d="M31.378,47.3a20.153,20.153,0,0,1-20.04-20.256,19.841,19.841,0,0,1,18.6-20.208c-.5-.048-1.008-.048-1.536-.048A23.258,23.258,0,1,0,51.394,30.046c0-.528-.024-1.032-.048-1.56A20.126,20.126,0,0,1,31.378,47.3Z" transform="translate(-2.026 -3.334)" fill="#2a445d"/>
            <path id="패스_34762" data-name="패스 34762" d="M28.182,14.542c-.672,1.584-4.032,1.656-7.512.168s-5.784-3.984-5.112-5.568,4.032-1.656,7.512-.168S28.854,12.958,28.182,14.542Z" transform="translate(12.018 -1.774)" fill="#fff"/>
            <path id="패스_34763" data-name="패스 34763" d="M25.137,15.213c-.6.744-1.968.6-3.048-.312s-1.44-2.256-.84-3c.6-.72,1.968-.6,3.048.336C25.377,13.149,25.761,14.493,25.137,15.213Z" transform="translate(19.743 3.171)" fill="#fff"/>
          </g>
        </g>
      </g>
    </g>
  </g>
</svg>
